<svg width="96" height="96" viewBox="0 0 96 96" fill="none" xmlns="http://www.w3.org/2000/svg">
<rect x="2.13333" y="2.13333" width="91.7333" height="91.7333" rx="13.8667" fill="white" stroke="#331222" stroke-width="4.26667"/>
<path d="M25.7342 67.0927L25.0566 68.3686L25.9898 69.4714C31.1434 75.5621 38.8549 79.4667 47.4667 79.4667C56.0785 79.4667 63.79 75.5621 68.9436 69.4714L69.8768 68.3686L69.1992 67.0927C67.8446 64.5421 65.8263 61.6102 63.3167 59.2853C60.8291 56.9807 57.6335 55.071 53.9699 55.071C53.4095 55.071 52.8746 55.164 52.3868 55.3125L52.3671 55.3184L52.3475 55.3248C50.765 55.8401 49.1344 56.1549 47.4667 56.1549C45.8011 56.1549 44.1831 55.8409 42.5813 55.3233L42.564 55.3177L42.5466 55.3125C42.0588 55.164 41.5239 55.071 40.9635 55.071C37.2999 55.071 34.1043 56.9807 31.6166 59.2853C29.1071 61.6102 27.0888 64.5421 25.7342 67.0927ZM16 48.5333C16 31.1503 30.0836 17.0667 47.4667 17.0667C64.8498 17.0667 78.9334 31.1503 78.9334 48.5333C78.9334 65.9164 64.8498 80 47.4667 80C30.0836 80 16 65.9164 16 48.5333ZM61.5226 39.8624C61.5226 32.0997 55.2294 25.8065 47.4667 25.8065C39.704 25.8065 33.4108 32.0997 33.4108 39.8624C33.4108 47.6251 39.704 53.9183 47.4667 53.9183C55.2294 53.9183 61.5226 47.6251 61.5226 39.8624Z" fill="#E0407D" stroke="#331222" stroke-width="4.26667"/>
</svg>
