<svg width="96" height="96" viewBox="0 0 96 96" fill="none" xmlns="http://www.w3.org/2000/svg">
<rect x="2.13333" y="2.13333" width="91.7333" height="91.7333" rx="13.8667" fill="white" stroke="#331222" stroke-width="4.26667"/>
<path d="M46.1971 29.8422L48 32.6925L49.8029 29.8422C54.164 22.9478 59.4555 20.2833 64.2931 20.2668C74.0671 20.2334 83.1171 30.593 78.9686 43.3453C76.4573 49.8998 71.6859 56.151 65.8347 62.0464C60.3702 67.5521 54.0662 72.6479 48 77.3125C41.9338 72.6481 35.6298 67.5523 30.1653 62.0466C24.3141 56.1512 19.5426 49.8999 17.0315 43.3453C12.883 30.593 21.9329 20.2334 31.7069 20.2668C36.5448 20.2833 41.836 22.9478 46.1971 29.8422Z" fill="#E0407D" stroke="#331222" stroke-width="4.26667"/>
</svg>
