<svg width="96" height="97" viewBox="0 0 96 97" fill="none" xmlns="http://www.w3.org/2000/svg">
<rect x="2.13333" y="2.9672" width="91.7333" height="91.7333" rx="13.8667" fill="white" stroke="#331222" stroke-width="4.26667"/>
<path d="M41.1713 28.835C41.2207 28.937 41.2781 29.035 41.343 29.1279L43.2793 31.9C43.9539 33.1106 45.237 33.7842 46.0953 34.1325C47.1015 34.5409 48.2669 34.7971 49.2277 34.7971H74.3646C75.1115 34.7971 75.7333 35.4079 75.7333 36.1816V70.0155C75.7333 70.7892 75.1115 71.4 74.3646 71.4H20.5687C19.8218 71.4 19.2 70.7892 19.2 70.0155V27.9845C19.2 27.2108 19.8218 26.6 20.5687 26.6H37.6216C39.1282 26.6 40.5084 27.4642 41.1713 28.835Z" fill="#E0407D" stroke="#331222" stroke-width="4.26667" stroke-linejoin="round"/>
<path d="M76.3147 75.5268L76.3146 75.5268L68.8002 71.595L67.7983 71.0708L66.8021 71.6056L59.3293 75.6174C59.2413 75.6647 59.1784 75.6697 59.1313 75.6655C59.0752 75.6605 59.0076 75.6381 58.9421 75.5906C58.8765 75.5431 58.8301 75.4829 58.8041 75.4231C58.7815 75.3711 58.765 75.2997 58.7827 75.1921L58.7827 75.1921L60.1697 66.772L60.3508 65.6726L59.5519 64.8958L53.4582 58.9705L53.4581 58.9704C53.3841 58.8984 53.3554 58.8336 53.3426 58.7773C53.3277 58.7124 53.329 58.6323 53.3552 58.5496C53.3814 58.4669 53.4254 58.4036 53.471 58.3627C53.5098 58.3279 53.565 58.2943 53.6616 58.2797L62.0333 57.0075L63.1448 56.8386L63.6338 55.8263L67.3403 48.1524C67.3403 48.1524 67.3403 48.1524 67.3403 48.1524C67.4808 47.8616 67.8728 47.8603 68.0158 48.1485L68.0158 48.1485L71.8028 55.7824L72.3025 56.7897L73.4159 56.9468L81.8005 58.1294C81.8972 58.143 81.9527 58.176 81.9918 58.2103C82.0377 58.2506 82.0823 58.3133 82.1094 58.3957C82.1364 58.4781 82.1386 58.5581 82.1244 58.6232C82.1121 58.6797 82.0841 58.7449 82.0107 58.8178L75.9796 64.8079L75.1891 65.5931L75.3817 66.6904L76.8571 75.0952C76.8759 75.2025 76.8601 75.2742 76.8381 75.3265C76.8127 75.3866 76.7668 75.4475 76.7017 75.4957C76.6366 75.5439 76.5691 75.5671 76.5131 75.5727C76.466 75.5774 76.4031 75.573 76.3147 75.5268Z" fill="white" stroke="#331222" stroke-width="4.26667"/>
</svg>
