<?xml version="1.0" encoding="UTF-8"?>
<svg id="Layer_2" xmlns="http://www.w3.org/2000/svg" viewBox="0 0 459.22 224.598">
  <defs>
    <style>
      .cls-1 {
        fill: #fff;
      }

      .cls-2 {
        fill: #672b4d;
      }

      .cls-3 {
        fill: #311522;
      }

      .cls-4 {
        fill: #e0427e;
      }

      .cls-5 {
        fill: #301622;
      }
    </style>
  </defs>
  <g id="Layer_1-2" data-name="Layer_1">
    <g>
      <g>
        <path class="cls-5" d="M403.484,222.598c-26.786,0-28.143-18.442-28.143-22.14,0-.195.003-.393.01-.592-5.083-.519-9.526-2.51-12.845-5.749-3.798,3.817-9.171,5.893-15.385,5.893-4.767,0-9.12-1.238-12.68-3.594-4.036,2.386-9.077,3.594-15.008,3.594-7.879,0-14.527-1.76-19.789-5.233-4.217,2.778-9.114,4.239-14.253,4.239-3.355,0-6.678-.629-9.874-1.867-1.052-.408-2.122-.898-3.192-1.465-3.683,2.836-8.379,4.326-13.68,4.326-6.707,0-12.396-2.365-16.253-6.709-5.905,4.454-13.635,6.709-23.017,6.709-7.334,0-14.102-1.563-19.659-4.53-5.065,2.939-11.792,4.429-20.018,4.429-11.064,0-20.213-2.629-27.232-7.819-1.554,1.684-3.394,3.108-5.488,4.248-4.606,2.506-10.374,3.673-18.149,3.673-9.585,0-17.998-2.665-24.488-7.732-3.713,5.006-9.63,7.732-16.916,7.732-6.909,0-12.678-2.451-16.526-6.961-3.729,3.853-9.105,5.944-15.422,5.944s-11.755-2.092-15.584-5.943c-3.805,4.453-9.628,6.96-16.364,6.96-12.676,0-21.529-8.56-21.529-20.816v-42.021c0-11.327,2.823-20.452,8.392-27.122,1.331-1.593,2.817-3.035,4.445-4.315-7.928-2.987-12.837-10.134-12.837-19.212v-41.479c0-11.225,2.801-20.271,8.325-26.889,4.234-5.07,12.141-11.115,25.762-11.115,6.976,0,13.377,1.566,18.601,4.54,5.26-2.974,11.716-4.54,18.76-4.54,11.137,0,19.854,3.676,25.91,10.924,2.875,3.441,4.949,7.446,6.302,12.184,4.242-1.851,9.427-2.72,16.102-2.72,11.475,0,21.013,3.662,27.741,10.62,4.998-5.124,13.6-10.62,27.5-10.62,6.709,0,11.581.692,15.602,2.233,3.222-1.66,6.905-2.534,10.714-2.534,6.002,0,11.45,2.418,15.304,6.716,3.988-4.276,9.973-6.716,16.533-6.716,9.732,0,17.24,5.428,20.084,14.519.96,3.037,1.448,6.818,1.448,11.232,0,.569-.008,1.159-.025,1.768h25.399c12.458,0,20.829,8.532,20.829,21.231,0,8.711-4.18,15.778-11.099,19.116,2.498,2.836,4.674,5.892,6.498,9.124,3.072-1.584,6.543-2.413,10.157-2.413,7.424,0,13.801,3.392,17.558,9.102,1.853-10.427,9.834-17.14,21.017-17.14,12.755,0,21.326,8.815,21.326,21.937v4.237c5.406.67,10.333,2.352,14.688,5.014,4.012-3.655,9.366-5.649,15.261-5.649,6.159,0,11.684,2.473,15.524,6.868,4.005-4.371,10.071-6.868,16.729-6.868,9.779,0,17.321,5.454,20.175,14.589.966,3.057,1.456,6.865,1.456,11.315,0,11.135-2.845,26.901-10.827,37.755l-.156.223c-.653.933-1.251,1.744-1.839,2.498.407,2.272.613,4.704.613,7.243,0,14.392-9.585,29.771-36.486,29.771Z"/>
        <path class="cls-3" d="M73.448,9.04c10.516,0,18.717,3.434,24.375,10.207,3.135,3.753,5.29,8.325,6.511,13.81.128-.073.251-.153.381-.224,4.27-2.323,9.686-3.405,17.046-3.405,11.96,0,21.482,4.162,27.74,11.604.092-.108.179-.222.272-.329,4.492-5.144,12.862-11.275,27.23-11.275,6.929,0,11.818.765,15.727,2.443,3.025-1.74,6.629-2.743,10.589-2.743,6.321,0,11.843,2.938,15.282,7.911.338-.481.704-.948,1.096-1.399,3.601-4.139,9.236-6.512,15.459-6.512,8.815,0,15.606,4.903,18.176,13.116.901,2.848,1.357,6.426,1.357,10.635,0,1.224-.04,2.511-.114,3.836.519-.035,1.039-.068,1.576-.068h25.912c11.262,0,18.829,7.729,18.829,19.231,0,9.206-4.855,15.982-12.564,18.326,3.673,3.746,6.788,8.011,9.18,12.682,3.083-2.021,6.822-3.181,10.939-3.181,8.504,0,15.199,4.825,17.862,12.153.079-.009.153-.023.234-.029.147-.011.293-.015.438-.015.206,0,.411.01.614.025v-.234c0-11.925,7.807-19.937,19.427-19.937,11.559,0,19.326,8.012,19.326,19.937v6.044c6.385.512,12.124,2.478,16.952,5.756,3.58-3.838,8.873-6.198,14.997-6.198,6.537,0,12.066,2.962,15.493,8.116.371-.543.777-1.067,1.216-1.572,3.619-4.159,9.284-6.544,15.544-6.544,8.861,0,15.686,4.928,18.265,13.186.906,2.868,1.366,6.474,1.366,10.719,0,10.828-2.744,26.109-10.439,36.571l-.181.256c-.707,1.008-1.484,2.068-2.34,3.124.497,2.396.75,4.994.75,7.767,0,13.425-9.059,27.771-34.486,27.771-24.257,0-26.143-15.415-26.143-20.14,0-.81.063-1.635.17-2.461-6.394-.137-11.676-2.685-15.03-6.88-3.341,4.343-8.717,6.893-15.36,6.893-4.981,0-9.308-1.457-12.616-4.004-3.586,2.456-8.512,4.004-15.072,4.004-8.075,0-14.709-1.911-19.789-5.673-4.139,3.071-9.123,4.679-14.253,4.679-3.047,0-6.146-.567-9.151-1.732-1.344-.521-2.747-1.2-4.141-2.012-3.353,3.009-7.968,4.738-13.454,4.738-7.011,0-12.612-2.81-15.945-7.535-5.706,4.999-13.523,7.535-23.324,7.535-7.528,0-14.25-1.665-19.708-4.846-4.252,2.765-10.569,4.745-19.969,4.745-11.475,0-20.691-2.892-27.522-8.589-1.591,2.111-3.656,3.902-6.155,5.261-4.302,2.34-9.765,3.429-17.193,3.429-12.163,0-20.042-4.305-24.934-8.716-3.122,5.535-8.857,8.716-16.47,8.716-7.38,0-13.136-3.013-16.432-8.191-3.272,4.586-8.634,7.174-15.516,7.174s-12.325-2.608-15.707-7.139c-3.23,5.107-8.979,8.156-16.242,8.156-11.499,0-19.529-7.738-19.529-18.816v-42.021c0-10.846,2.667-19.539,7.927-25.839,1.793-2.148,4.298-4.477,7.679-6.395-9.354-1.526-15.606-8.666-15.606-18.415v-41.479c0-10.744,2.645-19.359,7.86-25.606,3.96-4.743,11.378-10.398,24.226-10.398,7.223,0,13.552,1.711,18.598,4.868,5.08-3.157,11.465-4.868,18.763-4.868M73.448,5.04c-6.957,0-13.387,1.468-18.757,4.264-5.334-2.796-11.712-4.264-18.604-4.264-14.395,0-22.789,6.436-27.297,11.834C2.957,23.861,0,33.338,0,45.044v41.479c0,8.646,4.288,15.864,11.219,19.712-.832.8-1.62,1.646-2.363,2.535-5.877,7.038-8.856,16.594-8.856,28.403v42.021c0,13.221,9.896,22.816,23.529,22.816,6.553,0,12.328-2.199,16.468-6.16,4.061,3.345,9.403,5.144,15.48,5.144s11.351-1.792,15.329-5.126c4.162,3.992,9.903,6.142,16.618,6.142,7.18,0,13.159-2.453,17.262-6.998,5.22,3.623,13.058,6.998,24.142,6.998,8.122,0,14.193-1.244,19.105-3.916,1.754-.954,3.344-2.092,4.758-3.401,7.161,4.791,16.225,7.215,27.007,7.215,8.075,0,14.806-1.399,20.052-4.162,5.653,2.795,12.383,4.263,19.625,4.263,9.089,0,16.729-2.044,22.774-6.084,4.168,3.95,9.887,6.084,16.496,6.084,5.269,0,10.005-1.372,13.864-3.991.765.369,1.529.702,2.285.995,3.427,1.328,6.992,2.002,10.596,2.002,5.092,0,9.965-1.333,14.251-3.878,5.403,3.235,12.045,4.872,19.791,4.872,5.788,0,10.803-1.1,14.952-3.273,3.678,2.149,8.027,3.273,12.736,3.273,6.036,0,11.361-1.819,15.403-5.196,3.021,2.465,6.719,4.103,10.852,4.803.334,5.767,3.563,22.98,30.107,22.98,12.77,0,22.715-3.356,29.559-9.976,5.757-5.568,8.927-13.308,8.927-21.795,0-2.335-.167-4.586-.497-6.717.441-.585.893-1.208,1.362-1.878l.152-.216c8.252-11.242,11.192-27.466,11.192-38.908,0-4.653-.522-8.665-1.551-11.923-3.077-9.853-11.539-15.981-22.079-15.981-6.43,0-12.37,2.169-16.69,6.025-4.101-3.875-9.559-6.025-15.563-6.025-5.865,0-11.248,1.829-15.478,5.207-3.793-2.115-7.967-3.555-12.471-4.302v-2.507c0-14.094-9.592-23.937-23.326-23.937-10.569,0-18.696,5.778-21.918,14.82-4.172-4.309-10.035-6.782-16.657-6.782-3.276,0-6.446.627-9.352,1.835-1.264-2.073-2.67-4.069-4.21-5.979,6.287-4.014,10.006-11.127,10.006-19.683,0-13.678-9.388-23.231-22.829-23.231h-23.374c-.017-4.52-.536-8.424-1.543-11.608-3.069-9.81-11.496-15.911-21.99-15.911-6.342,0-12.207,2.123-16.499,5.9-4.096-3.793-9.478-5.9-15.337-5.9-3.816,0-7.521.813-10.83,2.363-4.09-1.42-8.97-2.062-15.486-2.062-13.338,0-22.06,4.857-27.495,9.832-6.999-6.449-16.497-9.832-27.747-9.832-5.93,0-10.76.67-14.843,2.084-1.425-4.109-3.443-7.737-6.026-10.829-6.454-7.725-15.688-11.642-27.445-11.642h0Z"/>
      </g>
      <g>
        <g>
          <path class="cls-1" d="M408.524,217.558c-26.786,0-28.143-18.442-28.143-22.14,0-.195.003-.393.01-.592-5.083-.519-9.526-2.51-12.845-5.748-3.798,3.816-9.172,5.892-15.385,5.892-4.767,0-9.12-1.238-12.68-3.594-4.036,2.386-9.077,3.594-15.008,3.594-7.879,0-14.527-1.76-19.789-5.233-4.216,2.777-9.113,4.239-14.252,4.239-3.356,0-6.678-.629-9.875-1.868-1.052-.407-2.122-.897-3.192-1.464-3.682,2.836-8.378,4.326-13.68,4.326-6.706,0-12.396-2.365-16.253-6.709-5.905,4.454-13.635,6.709-23.017,6.709-7.334,0-14.102-1.563-19.659-4.53-5.065,2.939-11.792,4.429-20.018,4.429-11.064,0-20.213-2.629-27.232-7.819-1.554,1.685-3.394,3.108-5.488,4.248-4.606,2.506-10.374,3.673-18.149,3.673-9.587,0-18-2.665-24.489-7.732-3.713,5.006-9.629,7.732-16.916,7.732-6.909,0-12.678-2.451-16.526-6.961-3.729,3.853-9.105,5.944-15.422,5.944s-11.755-2.092-15.584-5.943c-3.805,4.453-9.628,6.96-16.364,6.96-12.676,0-21.529-8.56-21.529-20.816v-42.021c0-11.326,2.823-20.451,8.392-27.121,1.331-1.594,2.817-3.036,4.445-4.316-7.928-2.987-12.837-10.134-12.837-19.212v-41.479c0-11.224,2.801-20.271,8.325-26.888,4.234-5.071,12.141-11.116,25.762-11.116,6.977,0,13.377,1.566,18.601,4.541,5.259-2.975,11.715-4.541,18.76-4.541,11.137,0,19.854,3.675,25.91,10.924,2.876,3.443,4.949,7.447,6.302,12.184,4.242-1.851,9.427-2.72,16.102-2.72,11.474,0,21.012,3.662,27.741,10.62,4.998-5.124,13.6-10.62,27.5-10.62,6.709,0,11.581.692,15.602,2.233,3.224-1.66,6.906-2.534,10.714-2.534,6.002,0,11.45,2.418,15.304,6.716,3.988-4.276,9.973-6.716,16.533-6.716,9.732,0,17.24,5.428,20.084,14.52.96,3.036,1.448,6.817,1.448,11.231,0,.569-.008,1.159-.025,1.768h25.399c12.458,0,20.829,8.532,20.829,21.231,0,8.71-4.18,15.777-11.099,19.116,2.499,2.837,4.674,5.891,6.498,9.124,3.072-1.584,6.542-2.413,10.157-2.413,7.424,0,13.801,3.392,17.558,9.102,1.853-10.427,9.834-17.14,21.017-17.14,12.755,0,21.326,8.815,21.326,21.937v4.237c5.406.67,10.333,2.352,14.688,5.014,4.012-3.655,9.367-5.649,15.261-5.649,6.159,0,11.683,2.473,15.524,6.868,4.005-4.371,10.071-6.868,16.729-6.868,9.779,0,17.321,5.454,20.175,14.589.966,3.057,1.456,6.865,1.456,11.315,0,11.135-2.845,26.9-10.827,37.756l-.158.225c-.652.93-1.249,1.74-1.837,2.495.407,2.272.613,4.704.613,7.243,0,14.392-9.585,29.771-36.486,29.771Z"/>
          <path class="cls-3" d="M78.488,4c10.516,0,18.717,3.434,24.375,10.207,3.135,3.753,5.29,8.325,6.511,13.81.128-.073.251-.153.381-.224,4.27-2.323,9.686-3.405,17.046-3.405,11.96,0,21.482,4.162,27.74,11.604.092-.108.179-.222.272-.329,4.492-5.144,12.862-11.275,27.23-11.275,6.929,0,11.818.765,15.727,2.443,3.025-1.74,6.629-2.743,10.589-2.743,6.321,0,11.843,2.938,15.282,7.911.338-.481.704-.948,1.096-1.399,3.601-4.139,9.236-6.512,15.459-6.512,8.815,0,15.606,4.903,18.176,13.116.901,2.848,1.357,6.426,1.357,10.635,0,1.224-.04,2.511-.114,3.836.519-.035,1.039-.068,1.576-.068h25.912c11.262,0,18.829,7.729,18.829,19.231,0,9.206-4.855,15.982-12.564,18.326,3.673,3.746,6.788,8.011,9.18,12.682,3.083-2.021,6.822-3.181,10.939-3.181,8.504,0,15.199,4.825,17.862,12.153.079-.009.153-.023.234-.029.147-.011.293-.015.438-.015.206,0,.411.01.614.025v-.234c0-11.925,7.807-19.937,19.427-19.937,11.559,0,19.326,8.012,19.326,19.937v6.044c6.385.512,12.124,2.478,16.952,5.756,3.58-3.838,8.873-6.198,14.997-6.198,6.537,0,12.066,2.962,15.493,8.116.371-.543.777-1.067,1.216-1.572,3.619-4.159,9.284-6.544,15.544-6.544,8.861,0,15.686,4.928,18.265,13.186.906,2.868,1.366,6.474,1.366,10.719,0,10.828-2.744,26.109-10.439,36.571l-.181.256c-.707,1.008-1.484,2.068-2.34,3.124.497,2.396.75,4.994.75,7.767,0,13.425-9.059,27.771-34.486,27.771-24.257,0-26.143-15.415-26.143-20.14,0-.81.063-1.635.17-2.461-6.394-.137-11.676-2.685-15.03-6.88-3.341,4.343-8.717,6.893-15.36,6.893-4.981,0-9.308-1.457-12.616-4.004-3.586,2.456-8.512,4.004-15.072,4.004-8.075,0-14.709-1.911-19.789-5.673-4.139,3.071-9.123,4.679-14.253,4.679-3.047,0-6.146-.567-9.151-1.732-1.344-.521-2.747-1.2-4.141-2.012-3.353,3.009-7.968,4.738-13.454,4.738-7.011,0-12.612-2.81-15.945-7.535-5.706,4.999-13.523,7.535-23.324,7.535-7.528,0-14.25-1.665-19.708-4.846-4.252,2.765-10.569,4.745-19.969,4.745-11.475,0-20.691-2.892-27.522-8.589-1.591,2.111-3.656,3.902-6.155,5.261-4.302,2.34-9.765,3.429-17.193,3.429-12.163,0-20.042-4.305-24.934-8.716-3.122,5.535-8.857,8.716-16.47,8.716-7.38,0-13.136-3.013-16.432-8.191-3.272,4.586-8.634,7.174-15.516,7.174s-12.325-2.608-15.707-7.139c-3.23,5.107-8.979,8.156-16.242,8.156-11.499,0-19.529-7.738-19.529-18.816v-42.021c0-10.846,2.667-19.539,7.927-25.839,1.793-2.148,4.298-4.477,7.679-6.395-9.354-1.526-15.606-8.666-15.606-18.415v-41.479c0-10.744,2.645-19.359,7.86-25.606,3.96-4.743,11.378-10.398,24.226-10.398,7.223,0,13.552,1.711,18.598,4.868,5.08-3.157,11.465-4.868,18.763-4.868M78.488,0c-6.957,0-13.387,1.468-18.757,4.264C54.397,1.468,48.019,0,41.127,0c-14.395,0-22.789,6.436-27.297,11.834-5.833,6.986-8.79,16.464-8.79,28.17v41.479c0,8.646,4.288,15.864,11.219,19.712-.832.8-1.62,1.646-2.363,2.535-5.877,7.038-8.856,16.594-8.856,28.403v42.021c0,13.221,9.896,22.816,23.529,22.816,6.553,0,12.328-2.199,16.468-6.16,4.061,3.345,9.403,5.144,15.48,5.144s11.351-1.792,15.329-5.126c4.162,3.992,9.903,6.142,16.618,6.142,7.18,0,13.159-2.453,17.262-6.998,5.22,3.623,13.058,6.998,24.142,6.998,8.122,0,14.193-1.244,19.105-3.916,1.754-.954,3.344-2.092,4.758-3.401,7.161,4.791,16.225,7.215,27.007,7.215,8.075,0,14.806-1.399,20.052-4.162,5.653,2.795,12.383,4.263,19.625,4.263,9.089,0,16.729-2.044,22.774-6.084,4.168,3.95,9.887,6.084,16.496,6.084,5.269,0,10.005-1.372,13.864-3.991.765.369,1.529.702,2.285.995,3.427,1.328,6.992,2.002,10.596,2.002,5.092,0,9.965-1.333,14.251-3.878,5.403,3.235,12.045,4.872,19.791,4.872,5.788,0,10.803-1.1,14.952-3.273,3.678,2.149,8.027,3.273,12.736,3.273,6.036,0,11.361-1.819,15.403-5.196,3.021,2.465,6.719,4.103,10.852,4.803.334,5.767,3.563,22.98,30.107,22.98,12.77,0,22.715-3.356,29.559-9.976,5.757-5.568,8.927-13.308,8.927-21.795,0-2.335-.167-4.586-.497-6.717.441-.585.893-1.208,1.362-1.878l.152-.216c8.252-11.242,11.192-27.466,11.192-38.908,0-4.653-.522-8.665-1.551-11.923-3.077-9.853-11.539-15.981-22.079-15.981-6.43,0-12.37,2.169-16.69,6.025-4.101-3.875-9.559-6.025-15.563-6.025-5.865,0-11.248,1.829-15.478,5.207-3.793-2.115-7.967-3.555-12.471-4.302v-2.507c0-14.094-9.592-23.937-23.326-23.937-10.569,0-18.696,5.778-21.918,14.82-4.172-4.309-10.035-6.782-16.657-6.782-3.276,0-6.446.627-9.352,1.835-1.264-2.073-2.67-4.069-4.21-5.979,6.287-4.014,10.006-11.127,10.006-19.683,0-13.678-9.388-23.231-22.829-23.231h-23.374c-.017-4.52-.536-8.424-1.543-11.608-3.069-9.81-11.496-15.911-21.99-15.911-6.342,0-12.207,2.123-16.499,5.9-4.096-3.793-9.478-5.9-15.337-5.9-3.816,0-7.521.813-10.83,2.363-4.09-1.42-8.97-2.062-15.486-2.062-13.338,0-22.06,4.857-27.495,9.832-6.999-6.449-16.497-9.832-27.747-9.832-5.93,0-10.76.67-14.843,2.084-1.425-4.109-3.443-7.737-6.026-10.829-6.454-7.725-15.688-11.642-27.445-11.642h0Z"/>
        </g>
        <g>
          <g>
            <path class="cls-2" d="M28.472,88.212c-4.62,0-7.432-2.311-7.432-6.729v-41.479c0-15.769,6.83-24.004,20.087-24.004,9.742,0,16.471,4.219,18.58,11.65,2.109-7.532,8.738-11.65,18.781-11.65,13.659,0,20.087,7.733,20.087,24.004v40.475c0,5.523-2.009,7.733-7.03,7.733-5.122,0-7.432-2.311-7.432-7.733v-41.278c0-6.729-2.812-9.943-8.537-9.943-5.825,0-8.537,3.717-8.537,11.952v38.265c0,5.524-2.009,7.733-7.03,7.733-5.122,0-7.432-2.31-7.432-7.733v-38.265c0-8.135-2.712-11.952-8.537-11.952-5.725,0-8.537,3.314-8.537,9.943v42.282c0,4.62-2.31,6.729-7.03,6.729Z"/>
            <path class="cls-2" d="M107.718,71.439c0-11.65,10.043-16.974,29.025-15.366-.904-6.127-4.018-7.935-8.235-7.935-5.122,0-6.729,1.104-10.646,1.104-3.616,0-5.926-.903-5.926-4.82,0-5.524,4.52-8.035,14.864-8.035,16.371,0,24.104,10.044,24.104,25.611,0,17.978-5.725,26.213-21.895,26.213-13.357,0-21.292-6.83-21.292-16.772ZM129.914,77.164c5.022,0,6.227-1.908,6.93-12.654-.703.703-1.808.903-2.913.903-8.838,0-11.751,1.306-11.751,6.026,0,3.716,2.611,5.725,7.733,5.725Z"/>
            <path class="cls-2" d="M157.938,62.4c0-15.567,7.733-26.013,24.104-26.013,10.344,0,14.864,1.809,14.864,7.332,0,3.917-2.31,5.523-5.925,5.523-3.917,0-4.118-1.104-9.24-1.104-7.131,0-9.34,7.332-9.34,14.262s1.205,14.061,9.44,14.061c5.122,0,6.83-1.104,9.14-1.104,3.616,0,5.925.903,5.925,4.82,0,5.524-4.52,8.035-14.864,8.035-16.371,0-24.104-10.244-24.104-25.812Z"/>
            <path class="cls-2" d="M199.519,102.474c0-3.917,2.31-4.821,5.926-4.821,3.716,0,6.126.904,9.642.904,3.816,0,5.323-.804,5.323-3.314,0-2.311-1.205-5.825-6.628-18.982l-12.554-30.431c-.402-1.005-.603-2.21-.603-3.214,0-4.52,4.118-6.528,7.733-6.528,3.314,0,5.323,1.808,6.327,4.52l12.554,32.54c5.021-10.345,6.327-17.274,6.126-23.4-.101-3.816-.603-6.428-.703-7.131-.603-4.319,3.214-6.528,7.532-6.528,3.917,0,5.825,1.808,6.729,4.72.703,2.21.803,5.323.803,7.031,0,10.444-2.913,22.195-8.035,29.125-.804,1.105-3.917,5.926-7.131,7.03,2.31,2.411,3.113,6.729,3.113,10.947,0,9.14-6.628,15.567-22.195,15.567-9.441,0-13.96-2.611-13.96-8.034Z"/>
            <path class="cls-4" d="M254.36,70.837c0-5.223,2.611-7.231,6.829-7.231h25.912c4.218,0,6.829,2.009,6.829,7.231s-2.611,7.231-6.829,7.231h-25.912c-4.218,0-6.829-2.009-6.829-7.231Z"/>
          </g>
          <g>
            <path class="cls-2" d="M28.569,180.97c-4.68,0-7.529-2.34-7.529-6.816v-42.021c0-15.974,6.919-24.316,20.349-24.316,9.869,0,16.687,4.273,18.823,11.802,2.136-7.631,8.852-11.802,19.026-11.802,13.837,0,20.349,7.834,20.349,24.316v41.004c0,5.596-2.035,7.834-7.123,7.834-5.189,0-7.529-2.34-7.529-7.834v-41.817c0-6.817-2.849-10.073-8.648-10.073-5.901,0-8.648,3.765-8.648,12.108v38.765c0,5.596-2.035,7.835-7.122,7.835-5.189,0-7.529-2.341-7.529-7.835v-38.765c0-8.241-2.747-12.108-8.648-12.108-5.799,0-8.648,3.358-8.648,10.073v42.835c0,4.681-2.34,6.816-7.122,6.816Z"/>
            <path class="cls-2" d="M109.451,154.821c0-15.771,7.834-26.352,24.419-26.352,10.48,0,15.059,1.831,15.059,7.427,0,3.969-2.34,5.597-6.003,5.597-3.968,0-4.172-1.119-9.361-1.119-7.224,0-9.462,7.427-9.462,14.447s1.221,14.245,9.564,14.245c5.189,0,6.918-1.12,9.259-1.12,3.663,0,6.003.916,6.003,4.885,0,5.596-4.579,8.139-15.059,8.139-16.584,0-24.419-10.378-24.419-26.148Z"/>
            <path class="cls-2" d="M182.195,167.438c4.884,0,8.445-1.119,11.396-1.119,5.393,0,7.733,2.543,7.733,6.003,0,6.918-8.648,8.546-16.584,8.546-21.977,0-29.506-12.209-29.506-36.018s7.529-37.035,29.506-37.035c7.936,0,16.584,1.628,16.584,8.546,0,3.46-2.34,6.003-7.733,6.003-2.951,0-6.512-1.119-11.396-1.119-9.564,0-11.701,7.428-11.701,23.605s3.968,22.588,11.701,22.588Z"/>
            <path class="cls-2" d="M202.846,163.978c0-11.803,10.174-17.194,29.404-15.567-.916-6.206-4.07-8.037-8.343-8.037-5.189,0-6.817,1.119-10.785,1.119-3.663,0-6.003-.916-6.003-4.884,0-5.597,4.579-8.14,15.059-8.14,16.584,0,24.419,10.174,24.419,25.945,0,18.212-5.8,26.555-22.181,26.555-13.532,0-21.57-6.918-21.57-16.991ZM225.332,169.778c5.087,0,6.309-1.934,7.021-12.82-.712.713-1.831.916-2.951.916-8.954,0-11.904,1.322-11.904,6.104,0,3.765,2.645,5.8,7.834,5.8Z"/>
            <path class="cls-2" d="M256.36,174.052v-38.562c0-4.884,2.442-7.021,7.326-7.021s6.918,1.933,6.918,6.715c2.442-4.477,7.123-6.715,13.227-6.715,5.901,0,8.75,2.441,8.75,7.631,0,3.866-2.645,5.697-9.157,5.697-9.666,0-12.413,2.137-12.413,10.582v21.672c0,4.68-2.442,6.918-7.326,6.918s-7.326-2.238-7.326-6.918Z"/>
            <path class="cls-2" d="M305.957,162.758v-21.163h-2.646c-4.477,0-6.919-2.238-6.919-6.207s2.442-6.104,6.919-6.104h2.646v-10.988c0-4.477,3.052-7.631,7.529-7.631,4.375,0,7.122,2.849,7.122,7.428v4.985c0,2.238-.509,4.782-1.221,6.206h9.666c4.477,0,6.918,2.137,6.918,6.104s-2.442,6.207-6.918,6.207h-8.445v21.469c0,4.069.814,5.596,3.052,5.596,2.849,0,3.663-.713,5.901-.713,3.663,0,6.003.916,6.003,4.885,0,5.596-3.358,8.139-11.09,8.139-12.616,0-18.518-5.799-18.518-18.212Z"/>
            <path class="cls-2" d="M352.162,180.97c-4.68,0-7.529-2.34-7.529-6.816v-63.591c0-5.291,2.543-7.937,7.427-7.937s7.326,2.646,7.326,7.937v10.887c0,3.866-.712,7.224-2.646,10.988,2.34-2.849,6.105-3.968,11.192-3.968,13.329,0,22.283,8.343,22.283,21.265v24.419c0,4.681-2.34,6.816-7.123,6.816-4.68,0-7.529-2.34-7.529-6.816v-23.809c0-6.309-3.053-9.666-8.242-9.666-4.985,0-8.038,3.46-8.038,9.666v23.809c0,4.681-2.34,6.816-7.123,6.816Z"/>
            <path class="cls-2" d="M394.382,195.418c0-3.968,2.34-4.884,6.003-4.884,3.765,0,6.207.916,9.768.916,3.866,0,5.393-.814,5.393-3.357,0-2.341-1.221-5.901-6.715-19.23l-12.718-30.829c-.407-1.017-.61-2.238-.61-3.256,0-4.578,4.171-6.613,7.834-6.613,3.357,0,5.393,1.832,6.41,4.579l12.718,32.965c5.087-10.479,6.41-17.5,6.207-23.706-.102-3.866-.61-6.512-.712-7.225-.611-4.375,3.256-6.613,7.631-6.613,3.968,0,5.901,1.832,6.817,4.782.712,2.238.814,5.393.814,7.122,0,10.582-2.951,22.486-8.14,29.507-.814,1.119-3.968,6.003-7.224,7.122,2.34,2.441,3.154,6.816,3.154,11.09,0,9.259-6.715,15.771-22.486,15.771-9.564,0-14.143-2.646-14.143-8.14Z"/>
          </g>
        </g>
      </g>
    </g>
  </g>
</svg>