<?xml version="1.0" encoding="UTF-8"?>
<svg id="Layer_2" xmlns="http://www.w3.org/2000/svg" viewBox="0 0 570.64 434.9">
  <defs>
    <style>
      .cls-1 {
        fill: #fff;
      }

      .cls-2 {
        fill: #311522;
      }

      .cls-3 {
        fill: #422040;
      }

      .cls-4 {
        fill: #662a4b;
      }

      .cls-5 {
        fill: #e0407d;
      }
    </style>
  </defs>
  <g id="Layer_1-2" data-name="Layer_1">
    <g>
      <g>
        <path class="cls-1" d="M86.673,432.851h-43.858c-1.441,0-2.445-.57-3.274-1.104-1.557-1.001-3.414-2.441-7.414-6.213-1.5-1.415-2.84-2.679-4.019-3.959l-.071.052-1.215-1.502c-31.46-39.979-33.05-82.159-4.86-128.953l.439-.732.504-.69c21.306-29.314,37.322-43.221,53.033-45.896-1.458-11.856,1.637-22.77,9.009-31.675l.261-.308c23.659-27.358,49.475-59.252,56.476-91.745,2.113-12.134,3.316-23.746,4.48-34.976,3.413-32.94,6.36-61.38,31.275-77.089l.872-.55.924-.455c6.79-3.354,14.168-5.055,21.928-5.055,32.184,0,68.416,29.925,96.92,80.05,16.376,28.798,28.222,61.652,33.773,93.43,2.922-15.264,6.569-30.104,13.583-44.136,25.098-50.202,67.081-75.848,128.35-78.403,1.637-.068,2.966-.12,4.275-.156l.019-.026,1.046-.039h4.312l.136.006,15.294.021c10.884.014,19.739,8.881,19.739,19.766v113.523c9.945.809,20.078,2.973,30.148,6.441,17.602,6.062,20.009,17.484,19.878,23.753-.132,6.272-2.987,17.579-20.63,22.839-5.309,1.583-9.553,2.289-13.764,2.289-6.037,0-11.038-1.481-15.633-3.051v174.829c0,10.898-8.867,19.766-19.766,19.766l-412.171-.05Z"/>
        <path class="cls-2" d="M201.163,4c31.456,0,67.037,29.548,95.181,79.038,17.906,31.487,30.165,67.284,34.907,101.5.647-.337,1.011-.515,1.06-.515.004,0,.005,0,.006.003,3.253-18.231,6.783-35.529,14.91-51.787,24.743-49.492,66.168-74.777,126.644-77.3,2.034-.085,3.588-.144,5.225-.179l.03-.041,2.722.003c.423-.002.865-.003,1.333-.003h.203c.055,0,.106.006.161.006l15.321.02c9.803.013,17.742,7.963,17.742,17.766v115.383c10.319.664,20.881,2.817,31.497,6.473,16.402,5.649,18.649,16.097,18.529,21.82-.12,5.727-2.775,16.067-19.2,20.963-5.118,1.527-9.187,2.207-13.193,2.207h-.001c-5.951,0-10.912-1.539-15.483-3.114-.697-.239-1.411-.356-2.147-.411v177.303c0,9.812-7.954,17.766-17.766,17.766l-412.171-.049h-43.858c-.881,0-1.517-.351-2.19-.785-1.459-.938-3.232-2.316-7.126-5.987-2-1.886-3.709-3.498-5.085-5.207l-.021.016c-30.884-39.248-32.427-80.688-4.719-126.685l.396-.657.451-.619c21.664-29.808,37.969-43.663,53.683-45.372-1.992-12.058.862-23.137,8.283-32.102l.246-.29c23.818-27.542,49.806-59.673,56.904-92.618,2.141-12.283,3.348-23.932,4.516-35.202,3.359-32.41,6.26-60.402,30.352-75.593l.783-.493.83-.409c6.517-3.218,13.598-4.849,21.044-4.849M201.163,0c-8.068,0-15.744,1.771-22.815,5.262l-.829.409-.185.091-.175.11-.783.493c-11.868,7.484-19.693,18.129-24.629,33.502-4.284,13.344-5.881,28.751-7.571,45.063-1.159,11.185-2.356,22.736-4.464,34.85-6.925,32.004-32.537,63.631-56.003,90.767l-.269.316-.016.019-.016.02c-7.348,8.875-10.646,19.642-9.647,31.341-15.676,3.5-31.654,17.684-52.474,46.332l-.449.618-.102.141-.09.149-.396.657C6.05,313.708-.741,336.615.064,358.225c.808,21.683,9.281,42.925,25.186,63.136l2.397,3.046.24-.177c.887.89,1.839,1.788,2.859,2.75,4.122,3.886,6.064,5.388,7.715,6.449.711.459,2.202,1.421,4.354,1.421h43.858l412.171.049c12.002,0,21.766-9.764,21.766-21.766v-172.065c4.033,1.261,8.445,2.288,13.631,2.288,4.414,0,8.836-.732,14.338-2.374,19.561-5.831,21.941-19.224,22.056-24.712.115-5.485-1.722-18.969-21.226-25.686-9.609-3.309-19.279-5.45-28.799-6.379v-111.695c0-11.986-9.751-21.75-21.737-21.766l-15.241-.02c-.083-.004-.163-.006-.246-.006h-.203c-.476,0-.924.001-1.354.003l-2.696-.003-2.029-.002-.073.099c-1.004.033-2.063.075-3.326.127-62.062,2.589-104.603,28.596-130.055,79.508-5.599,11.199-9.075,22.865-11.739,34.828-6.166-28.875-17.29-58.192-32.09-84.217C270.956,30.303,234.075,0,201.163,0h0Z"/>
      </g>
      <g>
        <g>
          <path class="cls-4" d="M483.182,72.485c-3.407,0-5.304.068-8.57.204-54.579,2.277-89.589,23.679-111.494,67.494-23.215,46.437-4.223,107.542-79.862,203.279-7.293,9.23,15.9,7.129,23.523,1.977,46.638-31.517,62.422-109.809,73.119-160.738,11.807-56.208,43.26-88.803,101.621-98.333,4.214-.688,5.98-.961,10.475-1.431,11.475-1.2,8.357-12.543-8.813-12.452Z"/>
          <path class="cls-4" d="M542.322,211.164c-37.31-12.85-69.922-3.733-98.519,23.118-33.044,31.025-54.84,99.607-106.853,103.189-4.23.291-9.224,3.477-12.409,7.851-3.185,4.375,4.742,4.911,22.372,4.326,33.996-2.341,60.984-20.061,82.039-46.188,11.654-14.462,21.24-30.451,32.539-45.176,12.564-16.374,38.562-47.281,63.055-38.838,7.215,2.487,10.232,2.939,17.814.68,7.566-2.255,9.754-5.589-.039-8.962Z"/>
        </g>
        <path class="cls-3" d="M295.416,295.861C362.637,182.865,246.735-4.221,187.981,24.78c-23.343,14.719-18.77,52.809-26.901,99.155-7.695,36.3-33.534,69.192-60.909,100.849-19.875,24.005,26.752,66.343,50.012,79.331-24.155-5.307-40.987-14.576-63.619-39.632-13.777-8.196-37.721,23.198-47.671,36.888-20.437,33.925-26.467,68.497,3.462,106.532.014.088,6.243,6.17,7.881,7.222,4.272,2.748-2.327-14.221-3.282-20.648-6.141-48.632,31.684-76.005,54.605-80.154,22.921-4.148,53.463,8.86,67.583,12.268,14.12,3.408,35.334,5.103,36.874-4.006-26.928-4.133-68.269-38.626-43.057-62.707,28.175-27.917,54.297-60.787,63.333-103.242.665-3.3,5.304-3.66,8.716.173,32.169,39.881,48.743,101.781,35.807,143.246-12.936,41.466-10.451,48.035-7.47,49.807l32.072-54.002Z"/>
        <g>
          <g>
            <path class="cls-5" d="M84.52,281.306c-1.834.272-4.471,1.738-5.514,7.123-2.562-4.849-5.511-5.486-7.345-5.213-5.43.806,4.179,21.167,9.67,20.285,5.491-.882,8.619-23.001,3.19-22.194Z"/>
            <ellipse class="cls-5" cx="101.765" cy="298.884" rx="4.264" ry="2.533" transform="translate(-213.949 302.381) rotate(-71.832)"/>
            <ellipse class="cls-5" cx="57.576" cy="309.068" rx="4.162" ry="8.275" transform="translate(-182.917 106.581) rotate(-39.351)"/>
            <ellipse class="cls-5" cx="42.653" cy="329.036" rx="2.937" ry="5.839" transform="translate(-244.282 162.445) rotate(-52.475)"/>
            <ellipse class="cls-5" cx="36.201" cy="352.525" rx="2.295" ry="3.92" transform="translate(-313.526 295.295) rotate(-74.843)"/>
          </g>
          <g>
            <path class="cls-5" d="M225.53,64.924c-3.913-2.154-10.641,2.071-10.792,9.83-4.77-5.765-11.797-7.719-14.572-2.836-4.115,7.241-1.866,16.882,4.588,24.467,3.505,4.119,14.366,12.962,17.982,11.942,3.617-1.02,7.888-11.119,9.477-20.539,1.59-9.42-.659-19.549-6.684-22.864Z"/>
            <path class="cls-5" d="M127.291,232.832c-1.305,1.431-2.563,4.274-.301,8.911-4.826-1.825-7.541-.311-8.845,1.12-3.862,4.236,15.487,12.672,19.354,8.34,3.867-4.332-6.346-22.607-10.208-18.372Z"/>
            <ellipse class="cls-5" cx="253.99" cy="116.027" rx="12.861" ry="6.186" transform="translate(14.651 259.867) rotate(-55.557)"/>
            <ellipse class="cls-5" cx="196.241" cy="127.357" rx="7.552" ry="15.184" transform="translate(-27.297 196.358) rotate(-50.137)"/>
            <ellipse class="cls-5" cx="150.991" cy="220.439" rx="4.474" ry="8.896" transform="translate(-116.201 220.283) rotate(-55.557)"/>
            <ellipse class="cls-5" cx="169.452" cy="191.353" rx="5.839" ry="10.57" transform="translate(-84.195 222.872) rotate(-55.557)"/>
            <ellipse class="cls-5" cx="184.101" cy="164.052" rx="6.461" ry="11.479" transform="translate(-55.316 223.093) rotate(-55.557)"/>
            <ellipse class="cls-5" cx="272.905" cy="148.276" rx="8.56" ry="4.558" transform="translate(-34.949 107.185) rotate(-20.914)"/>
          </g>
        </g>
      </g>
      <g>
        <g>
          <path class="cls-3" d="M114.038,405.85v-35.816h2.76l.373,4.851h.149c1.044-1.742,2.188-3.135,3.432-4.179s2.861-1.567,4.851-1.567c3.779,0,6.143,2.115,7.089,6.343,1.293-2.04,2.585-3.607,3.879-4.702,1.293-1.093,2.934-1.641,4.925-1.641,2.486,0,4.402.895,5.744,2.686,1.343,1.792,2.014,4.478,2.014,8.059v25.967h-3.282v-25.594c0-5.422-1.716-8.133-5.149-8.133-1.591,0-2.96.56-4.103,1.679-1.145,1.119-2.313,2.798-3.506,5.037v27.011h-3.135v-25.594c0-5.422-1.692-8.133-5.073-8.133-1.641,0-3.048.56-4.216,1.679-1.169,1.119-2.327,2.798-3.47,5.037v27.011h-3.282Z"/>
          <path class="cls-3" d="M172.609,406.745c-2.139,0-4.153-.349-6.044-1.044-1.891-.696-3.432-1.778-4.625-3.246-1.194-1.466-1.79-3.321-1.79-5.559,0-3.978,2.151-7.014,6.454-9.103,4.303-2.089,11.305-3.557,21.005-4.402,0-1.99-.324-3.843-.97-5.56-.647-1.716-1.742-3.107-3.284-4.178-1.542-1.069-3.682-1.605-6.416-1.605-2.687,0-5.25.548-7.686,1.643-2.438,1.095-4.403,2.163-5.895,3.208l-1.492-2.462c.944-.697,2.226-1.456,3.843-2.276,1.615-.821,3.432-1.53,5.446-2.127,2.016-.597,4.067-.895,6.157-.895,3.232,0,5.843.623,7.833,1.865,1.99,1.244,3.446,2.899,4.365,4.962.921,2.065,1.381,4.391,1.381,6.978v22.906h-2.76l-.373-5.373h-.149c-2.091,1.643-4.454,3.097-7.089,4.365-2.637,1.27-5.274,1.903-7.91,1.903ZM173.206,403.911c2.288,0,4.627-.547,7.014-1.641,2.387-1.095,4.849-2.712,7.387-4.851v-11.49c-6.071.548-10.857,1.306-14.363,2.276-3.508.97-6.008,2.151-7.5,3.543-1.492,1.395-2.238,3.06-2.238,5,0,1.692.472,3.073,1.417,4.141.946,1.07,2.163,1.841,3.657,2.313,1.492.474,3.033.71,4.625.71Z"/>
          <path class="cls-3" d="M223.944,406.745c-3.682,0-6.99-.734-9.924-2.202-2.936-1.466-5.25-3.605-6.94-6.416-1.692-2.811-2.536-6.182-2.536-10.111,0-4.029.881-7.448,2.648-10.26,1.766-2.809,4.129-4.948,7.089-6.416s6.23-2.202,9.813-2.202c2.984,0,5.508.548,7.573,1.641,2.065,1.095,3.843,2.363,5.335,3.806l-1.94,2.238c-1.542-1.442-3.197-2.599-4.962-3.47-1.766-.869-3.744-1.306-5.932-1.306-3.184,0-5.982.671-8.395,2.016-2.413,1.343-4.303,3.208-5.67,5.595-1.369,2.387-2.052,5.175-2.052,8.357,0,3.133.671,5.883,2.014,8.244,1.343,2.365,3.22,4.216,5.633,5.56,2.413,1.343,5.212,2.014,8.395,2.014,2.436,0,4.663-.486,6.678-1.456,2.014-.97,3.817-2.202,5.41-3.694l1.716,2.313c-1.841,1.693-3.93,3.073-6.267,4.141-2.339,1.07-4.901,1.605-7.686,1.605Z"/>
          <path class="cls-3" d="M252.073,422.192c-.697,0-1.443-.075-2.238-.224-.796-.149-1.468-.324-2.014-.522l.895-2.911c.448.149.98.286,1.603.411.621.123,1.256.186,1.903.186,2.785,0,5.075-.895,6.865-2.686s3.232-4.055,4.327-6.791l1.268-3.133-17.386-36.487h3.433l10.446,22.535c.696,1.492,1.48,3.145,2.351,4.962.869,1.816,1.728,3.518,2.573,5.111h.3c.696-1.593,1.404-3.284,2.125-5.075s1.405-3.456,2.052-4.998l9.327-22.535h3.208l-16.862,40.292c-.697,1.99-1.667,3.893-2.911,5.71-1.244,1.815-2.798,3.295-4.663,4.44-1.865,1.143-4.067,1.716-6.603,1.716Z"/>
          <path class="cls-3" d="M330.417,405.85v-35.816h2.76l.373,4.851h.149c1.044-1.742,2.188-3.135,3.432-4.179s2.861-1.567,4.851-1.567c3.779,0,6.143,2.115,7.089,6.343,1.293-2.04,2.585-3.607,3.879-4.702,1.293-1.093,2.934-1.641,4.925-1.641,2.486,0,4.402.895,5.744,2.686,1.343,1.792,2.014,4.478,2.014,8.059v25.967h-3.282v-25.594c0-5.422-1.716-8.133-5.149-8.133-1.591,0-2.96.56-4.103,1.679-1.145,1.119-2.313,2.798-3.506,5.037v27.011h-3.135v-25.594c0-5.422-1.692-8.133-5.073-8.133-1.641,0-3.048.56-4.216,1.679-1.169,1.119-2.327,2.798-3.47,5.037v27.011h-3.282Z"/>
          <path class="cls-3" d="M388.988,406.745c-2.139,0-4.153-.349-6.044-1.044-1.891-.696-3.432-1.778-4.625-3.246-1.194-1.466-1.79-3.321-1.79-5.559,0-3.978,2.151-7.014,6.454-9.103,4.303-2.089,11.305-3.557,21.005-4.402,0-1.99-.324-3.843-.97-5.56-.647-1.716-1.742-3.107-3.284-4.178-1.542-1.069-3.682-1.605-6.416-1.605-2.687,0-5.25.548-7.686,1.643-2.438,1.095-4.403,2.163-5.895,3.208l-1.492-2.462c.944-.697,2.226-1.456,3.843-2.276,1.615-.821,3.432-1.53,5.446-2.127,2.016-.597,4.067-.895,6.157-.895,3.232,0,5.843.623,7.833,1.865,1.99,1.244,3.446,2.899,4.365,4.962.921,2.065,1.381,4.391,1.381,6.978v22.906h-2.76l-.373-5.373h-.149c-2.091,1.643-4.454,3.097-7.089,4.365-2.637,1.27-5.274,1.903-7.91,1.903ZM389.585,403.911c2.288,0,4.627-.547,7.014-1.641,2.387-1.095,4.849-2.712,7.387-4.851v-11.49c-6.071.548-10.857,1.306-14.363,2.276-3.508.97-6.008,2.151-7.5,3.543-1.492,1.395-2.238,3.06-2.238,5,0,1.692.472,3.073,1.417,4.141.946,1.07,2.163,1.841,3.657,2.313,1.492.474,3.033.71,4.625.71Z"/>
          <path class="cls-3" d="M435.248,406.745c-4.676,0-8.482-1.615-11.416-4.849-2.936-3.234-4.402-7.859-4.402-13.879,0-3.879.782-7.224,2.349-10.035s3.643-4.988,6.23-6.53c2.587-1.541,5.347-2.313,8.283-2.313,2.288,0,4.377.448,6.268,1.343,1.889.895,3.73,2.139,5.522,3.732h.149l-.224-7.238v-14.775h3.357v53.649h-2.835l-.373-5.298h-.149c-1.542,1.643-3.433,3.086-5.671,4.329-2.238,1.242-4.601,1.865-7.089,1.865ZM435.696,403.836c2.091,0,4.166-.571,6.23-1.716s4.091-2.762,6.083-4.851v-19.922c-1.992-1.94-3.931-3.309-5.821-4.103-1.891-.796-3.78-1.195-5.671-1.195-2.536,0-4.825.71-6.863,2.127-2.04,1.417-3.669,3.321-4.887,5.708-1.22,2.387-1.829,5.101-1.829,8.133,0,4.726,1.131,8.545,3.395,11.454,2.262,2.909,5.383,4.365,9.363,4.365Z"/>
          <path class="cls-3" d="M483.823,406.745c-3.433,0-6.579-.746-9.44-2.238s-5.148-3.643-6.865-6.454c-1.716-2.811-2.573-6.182-2.573-10.111,0-3.879.845-7.224,2.536-10.035,1.69-2.811,3.891-4.974,6.603-6.492,2.71-1.516,5.633-2.276,8.768-2.276,4.924,0,8.829,1.468,11.714,4.403,2.883,2.936,4.327,6.988,4.327,12.162v1.379c0,.474-.05.933-.149,1.381h-30.443c.099,3.333.869,6.145,2.313,8.432,1.442,2.288,3.345,4.029,5.708,5.224,2.363,1.194,4.938,1.79,7.724,1.79,2.436,0,4.625-.361,6.565-1.083,1.941-.72,3.756-1.653,5.448-2.798l1.343,2.464c-1.593,1.095-3.458,2.077-5.597,2.946-2.139.871-4.801,1.306-7.982,1.306ZM482.928,371.974c-2.29,0-4.478.536-6.567,1.605-2.089,1.07-3.843,2.611-5.26,4.627-1.417,2.014-2.302,4.488-2.649,7.424h27.459c-.25-4.627-1.556-8.059-3.917-10.297-2.363-2.24-5.385-3.359-9.065-3.359Z"/>
        </g>
        <path class="cls-5" d="M280.8,405.85v-3.432h35.816v3.432h-35.816Z"/>
      </g>
    </g>
  </g>
</svg>