<?xml version="1.0" encoding="UTF-8"?>
<svg id="Layer_2" xmlns="http://www.w3.org/2000/svg" viewBox="0 0 316.7 240.29">
  <defs>
    <style>
      .cls-1 {
        fill: #fff;
      }

      .cls-2 {
        fill: #422040;
      }

      .cls-3 {
        fill: #662a4b;
      }

      .cls-4 {
        fill: #e0407d;
      }
    </style>
  </defs>
  <g id="Layer_1-2" data-name="Layer_1">
    <g>
      <path class="cls-1" d="M306.27,107.15c-5.98-2.06-11.92-3.27-17.73-3.64V38.56c0-5.52-4.47-9.99-9.99-10h-8.62s-.06-.01-.09-.01h-.11c-.26,0-.51,0-.75,0h-1.53s-.02.02-.02.02c-.92.02-1.8.05-2.94.1-34.04,1.42-57.36,15.65-71.29,43.51-4.57,9.15-6.56,18.89-8.39,29.15,0-.02-.21.08-.6.29-2.67-19.26-9.57-39.41-19.65-57.13C148.71,16.63,128.69,0,110.98,0c-4.19,0-8.18.92-11.85,2.73l-.47.23-.44.28c-13.56,8.55-15.19,24.31-17.08,42.55-.66,6.34-1.34,12.9-2.54,19.81-4,18.54-18.62,36.63-32.03,52.13l-.14.16c-4.18,5.05-5.78,11.28-4.66,18.07-8.85.96-18.02,8.76-30.22,25.54l-.25.35-.22.37c-15.6,25.89-14.73,49.22,2.66,71.31h.01c.77.95,1.74,1.86,2.86,2.92,2.19,2.07,3.19,2.84,4.01,3.37.38.24.74.44,1.23.44h24.69l232,.03c5.52,0,10-4.48,10-10v-99.8c.41.03.82.1,1.21.23,2.57.89,5.37,1.75,8.72,1.75h0c2.25,0,4.55-.38,7.43-1.24,9.25-2.76,10.74-8.58,10.81-11.8.07-3.22-1.2-9.1-10.43-12.28Z"/>
      <g>
        <g>
          <path class="cls-3" d="M269.72,38.55c-1.92,0-2.99.04-4.82.11-30.72,1.28-50.43,13.33-62.76,37.99-13.07,26.14-2.38,60.53-44.95,114.42-4.1,5.2,8.95,4.01,13.24,1.11,26.25-17.74,35.14-61.81,41.16-90.48,6.65-31.64,24.35-49.99,57.2-55.35,2.37-.39,3.37-.54,5.9-.81,6.46-.68,4.7-7.06-4.96-7.01Z"/>
          <path class="cls-3" d="M303.01,116.61c-21-7.23-39.36-2.1-55.45,13.01-18.6,17.46-30.87,56.07-60.15,58.08-2.38.16-5.19,1.96-6.98,4.42-1.79,2.46,2.67,2.76,12.59,2.44,19.14-1.32,34.33-11.29,46.18-26,6.56-8.14,11.96-17.14,18.32-25.43,7.07-9.22,21.71-26.61,35.49-21.86,4.06,1.4,5.76,1.65,10.03.38,4.26-1.27,5.49-3.15-.02-5.04Z"/>
        </g>
        <path class="cls-2" d="M164.03,164.28C201.87,100.68,136.63-4.63,103.56,11.7c-13.14,8.28-10.57,29.73-15.14,55.81-4.33,20.43-18.88,38.95-34.28,56.77-11.19,13.51,15.06,37.34,28.15,44.65-13.6-2.99-23.07-8.2-35.81-22.31-7.75-4.61-21.23,13.06-26.83,20.76-11.5,19.1-14.9,38.56,1.95,59.97,0,.05,3.51,3.47,4.44,4.07,2.4,1.55-1.31-8-1.85-11.62-3.46-27.37,17.83-42.78,30.74-45.12,12.9-2.33,30.09,4.99,38.04,6.91,7.95,1.92,19.89,2.87,20.76-2.26-15.16-2.33-38.43-21.74-24.24-35.3,15.86-15.71,30.56-34.22,35.65-58.11.37-1.86,2.99-2.06,4.91.1,18.11,22.45,27.44,57.29,20.16,80.63-7.28,23.34-5.88,27.04-4.2,28.04l18.05-30.4Z"/>
        <g>
          <g>
            <path class="cls-4" d="M45.32,156.09c-1.03.15-2.52.98-3.1,4.01-1.44-2.73-3.1-3.09-4.13-2.93-3.06.45,2.35,11.91,5.44,11.42,3.09-.5,4.85-12.95,1.8-12.49Z"/>
            <ellipse class="cls-4" cx="55.03" cy="165.99" rx="2.4" ry="1.43" transform="translate(-119.84 166.52) rotate(-71.83)"/>
            <ellipse class="cls-4" cx="30.16" cy="171.72" rx="2.34" ry="4.66" transform="translate(-102.04 58.05) rotate(-39.35)"/>
            <ellipse class="cls-4" cx="21.76" cy="182.96" rx="1.65" ry="3.29" transform="translate(-136.6 88.77) rotate(-52.47)"/>
            <ellipse class="cls-4" cx="18.13" cy="196.18" rx="1.29" ry="2.21" transform="translate(-175.97 162.38) rotate(-74.84)"/>
          </g>
          <g>
            <path class="cls-4" d="M124.7,34.29c-2.2-1.21-5.99,1.17-6.07,5.53-2.69-3.25-6.64-4.35-8.2-1.6-2.32,4.08-1.05,9.5,2.58,13.77,1.97,2.32,8.09,7.3,10.12,6.72,2.04-.57,4.44-6.26,5.33-11.56.89-5.3-.37-11-3.76-12.87Z"/>
            <path class="cls-4" d="M69.4,128.81c-.73.81-1.44,2.41-.17,5.02-2.72-1.03-4.24-.18-4.98.63-2.17,2.38,8.72,7.13,10.89,4.69,2.18-2.44-3.57-12.73-5.75-10.34Z"/>
            <ellipse class="cls-4" cx="140.72" cy="63.06" rx="7.24" ry="3.48" transform="translate(9.13 143.44) rotate(-55.56)"/>
            <ellipse class="cls-4" cx="108.21" cy="69.44" rx="4.25" ry="8.55" transform="translate(-14.44 107.99) rotate(-50.14)"/>
            <ellipse class="cls-4" cx="82.74" cy="121.83" rx="2.52" ry="5.01" transform="translate(-64.53 121.16) rotate(-55.56)"/>
            <ellipse class="cls-4" cx="93.13" cy="105.46" rx="3.29" ry="5.95" transform="translate(-46.51 122.62) rotate(-55.56)"/>
            <ellipse class="cls-4" cx="101.38" cy="90.09" rx="3.64" ry="6.46" transform="translate(-30.26 122.74) rotate(-55.56)"/>
            <ellipse class="cls-4" cx="151.36" cy="81.21" rx="4.82" ry="2.57" transform="translate(-19.02 59.38) rotate(-20.91)"/>
          </g>
        </g>
      </g>
      <g>
        <g>
          <path class="cls-2" d="M61.94,226.19v-20.16h1.55l.21,2.73h.08c.59-.98,1.23-1.76,1.93-2.35s1.61-.88,2.73-.88c2.13,0,3.46,1.19,3.99,3.57.73-1.15,1.46-2.03,2.18-2.65.73-.62,1.65-.92,2.77-.92,1.4,0,2.48.5,3.23,1.51.76,1.01,1.13,2.52,1.13,4.54v14.62h-1.85v-14.41c0-3.05-.97-4.58-2.9-4.58-.9,0-1.67.32-2.31.95-.64.63-1.3,1.58-1.97,2.83v15.2h-1.76v-14.41c0-3.05-.95-4.58-2.86-4.58-.92,0-1.72.32-2.37.95-.66.63-1.31,1.58-1.95,2.83v15.2h-1.85Z"/>
          <path class="cls-2" d="M94.91,226.7c-1.2,0-2.34-.2-3.4-.59s-1.93-1-2.6-1.83c-.67-.83-1.01-1.87-1.01-3.13,0-2.24,1.21-3.95,3.63-5.12s6.36-2,11.82-2.48c0-1.12-.18-2.16-.55-3.13-.36-.97-.98-1.75-1.85-2.35-.87-.6-2.07-.9-3.61-.9s-2.96.31-4.33.92c-1.37.62-2.48,1.22-3.32,1.81l-.84-1.39c.53-.39,1.25-.82,2.16-1.28.91-.46,1.93-.86,3.07-1.2,1.13-.34,2.29-.5,3.47-.5,1.82,0,3.29.35,4.41,1.05,1.12.7,1.94,1.63,2.46,2.79.52,1.16.78,2.47.78,3.93v12.89h-1.55l-.21-3.02h-.08c-1.18.92-2.51,1.74-3.99,2.46-1.48.71-2.97,1.07-4.45,1.07ZM95.24,225.1c1.29,0,2.6-.31,3.95-.92s2.73-1.53,4.16-2.73v-6.47c-3.42.31-6.11.74-8.08,1.28-1.97.55-3.38,1.21-4.22,1.99-.84.79-1.26,1.72-1.26,2.81,0,.95.27,1.73.8,2.33.53.6,1.22,1.04,2.06,1.3.84.27,1.71.4,2.6.4Z"/>
          <path class="cls-2" d="M123.8,226.7c-2.07,0-3.93-.41-5.59-1.24-1.65-.83-2.96-2.03-3.91-3.61-.95-1.58-1.43-3.48-1.43-5.69s.5-4.19,1.49-5.78c.99-1.58,2.32-2.79,3.99-3.61s3.51-1.24,5.52-1.24c1.68,0,3.1.31,4.26.92,1.16.62,2.16,1.33,3,2.14l-1.09,1.26c-.87-.81-1.8-1.46-2.79-1.95-.99-.49-2.11-.74-3.34-.74-1.79,0-3.37.38-4.73,1.13-1.36.76-2.42,1.81-3.19,3.15-.77,1.34-1.16,2.91-1.16,4.7s.38,3.31,1.13,4.64c.76,1.33,1.81,2.37,3.17,3.13,1.36.76,2.93,1.13,4.73,1.13,1.37,0,2.62-.27,3.76-.82s2.15-1.24,3.04-2.08l.97,1.3c-1.04.95-2.21,1.73-3.53,2.33-1.32.6-2.76.9-4.33.9Z"/>
          <path class="cls-2" d="M139.64,235.39c-.39,0-.81-.04-1.26-.13-.45-.08-.83-.18-1.13-.29l.5-1.64c.25.08.55.16.9.23.35.07.71.1,1.07.1,1.57,0,2.86-.5,3.86-1.51s1.82-2.28,2.44-3.82l.71-1.76-9.79-20.54h1.93l5.88,12.68c.39.84.83,1.77,1.32,2.79.49,1.02.97,1.98,1.45,2.88h.17c.39-.9.79-1.85,1.2-2.86s.79-1.95,1.16-2.81l5.25-12.68h1.81l-9.49,22.68c-.39,1.12-.94,2.19-1.64,3.21-.7,1.02-1.58,1.85-2.62,2.5-1.05.64-2.29.97-3.72.97Z"/>
          <path class="cls-2" d="M183.74,226.19v-20.16h1.55l.21,2.73h.08c.59-.98,1.23-1.76,1.93-2.35s1.61-.88,2.73-.88c2.13,0,3.46,1.19,3.99,3.57.73-1.15,1.46-2.03,2.18-2.65.73-.62,1.65-.92,2.77-.92,1.4,0,2.48.5,3.23,1.51.76,1.01,1.13,2.52,1.13,4.54v14.62h-1.85v-14.41c0-3.05-.97-4.58-2.9-4.58-.9,0-1.67.32-2.31.95-.64.63-1.3,1.58-1.97,2.83v15.2h-1.76v-14.41c0-3.05-.95-4.58-2.86-4.58-.92,0-1.72.32-2.37.95-.66.63-1.31,1.58-1.95,2.83v15.2h-1.85Z"/>
          <path class="cls-2" d="M216.7,226.7c-1.2,0-2.34-.2-3.4-.59s-1.93-1-2.6-1.83c-.67-.83-1.01-1.87-1.01-3.13,0-2.24,1.21-3.95,3.63-5.12s6.36-2,11.82-2.48c0-1.12-.18-2.16-.55-3.13-.36-.97-.98-1.75-1.85-2.35-.87-.6-2.07-.9-3.61-.9s-2.96.31-4.33.92c-1.37.62-2.48,1.22-3.32,1.81l-.84-1.39c.53-.39,1.25-.82,2.16-1.28.91-.46,1.93-.86,3.07-1.2,1.13-.34,2.29-.5,3.47-.5,1.82,0,3.29.35,4.41,1.05,1.12.7,1.94,1.63,2.46,2.79.52,1.16.78,2.47.78,3.93v12.89h-1.55l-.21-3.02h-.08c-1.18.92-2.51,1.74-3.99,2.46-1.48.71-2.97,1.07-4.45,1.07ZM217.04,225.1c1.29,0,2.6-.31,3.95-.92s2.73-1.53,4.16-2.73v-6.47c-3.42.31-6.11.74-8.08,1.28-1.97.55-3.38,1.21-4.22,1.99-.84.79-1.26,1.72-1.26,2.81,0,.95.27,1.73.8,2.33.53.6,1.22,1.04,2.06,1.3.84.27,1.71.4,2.6.4Z"/>
          <path class="cls-2" d="M242.74,226.7c-2.63,0-4.77-.91-6.43-2.73-1.65-1.82-2.48-4.42-2.48-7.81,0-2.18.44-4.07,1.32-5.65s2.05-2.81,3.51-3.68c1.46-.87,3.01-1.3,4.66-1.3,1.29,0,2.46.25,3.53.76,1.06.5,2.1,1.2,3.11,2.1h.08l-.13-4.07v-8.32h1.89v30.2h-1.6l-.21-2.98h-.08c-.87.92-1.93,1.74-3.19,2.44s-2.59,1.05-3.99,1.05ZM243,225.06c1.18,0,2.34-.32,3.51-.97s2.3-1.55,3.42-2.73v-11.21c-1.12-1.09-2.21-1.86-3.28-2.31-1.06-.45-2.13-.67-3.19-.67-1.43,0-2.72.4-3.86,1.2-1.15.8-2.07,1.87-2.75,3.21-.69,1.34-1.03,2.87-1.03,4.58,0,2.66.64,4.81,1.91,6.45,1.27,1.64,3.03,2.46,5.27,2.46Z"/>
          <path class="cls-2" d="M270.08,226.7c-1.93,0-3.7-.42-5.31-1.26s-2.9-2.05-3.86-3.63c-.97-1.58-1.45-3.48-1.45-5.69s.48-4.07,1.43-5.65c.95-1.58,2.19-2.8,3.72-3.65,1.53-.85,3.17-1.28,4.94-1.28,2.77,0,4.97.83,6.59,2.48,1.62,1.65,2.44,3.93,2.44,6.85v.78c0,.27-.03.53-.08.78h-17.14c.06,1.88.49,3.46,1.3,4.75.81,1.29,1.88,2.27,3.21,2.94,1.33.67,2.78,1.01,4.35,1.01,1.37,0,2.6-.2,3.7-.61,1.09-.41,2.11-.93,3.07-1.58l.76,1.39c-.9.62-1.95,1.17-3.15,1.66-1.2.49-2.7.74-4.49.74ZM269.58,207.13c-1.29,0-2.52.3-3.7.9-1.18.6-2.16,1.47-2.96,2.6-.8,1.13-1.3,2.53-1.49,4.18h15.46c-.14-2.6-.88-4.54-2.21-5.8-1.33-1.26-3.03-1.89-5.1-1.89Z"/>
        </g>
        <path class="cls-4" d="M155.81,226.19v-1.93h20.16v1.93h-20.16Z"/>
      </g>
    </g>
  </g>
</svg>