<?xml version="1.0" encoding="UTF-8" standalone="no"?>
<svg
   xmlns:dc="http://purl.org/dc/elements/1.1/"
   xmlns:cc="http://creativecommons.org/ns#"
   xmlns:rdf="http://www.w3.org/1999/02/22-rdf-syntax-ns#"
   xmlns:svg="http://www.w3.org/2000/svg"
   xmlns="http://www.w3.org/2000/svg"
   xmlns:sodipodi="http://sodipodi.sourceforge.net/DTD/sodipodi-0.dtd"
   xmlns:inkscape="http://www.inkscape.org/namespaces/inkscape"
   width="38.100002mm"
   height="33.337231mm"
   viewBox="0 0 38.100002 33.337231"
   version="1.1"
   id="svg27"
   inkscape:version="1.0.2 (e86c870879, 2021-01-15, custom)"
   sodipodi:docname="inside_bottom.svg">
  <defs
     id="defs21" />
  <sodipodi:namedview
     id="base"
     pagecolor="#ffffff"
     bordercolor="#666666"
     borderopacity="1.0"
     inkscape:pageopacity="0.0"
     inkscape:pageshadow="2"
     inkscape:zoom="0.35"
     inkscape:cx="92.000003"
     inkscape:cy="128.7138"
     inkscape:document-units="mm"
     inkscape:current-layer="layer1"
     inkscape:document-rotation="0"
     showgrid="false"
     fit-margin-top="0"
     fit-margin-left="0"
     fit-margin-right="0"
     fit-margin-bottom="0"
     inkscape:window-width="1350"
     inkscape:window-height="728"
     inkscape:window-x="0"
     inkscape:window-y="0"
     inkscape:window-maximized="0" />
  <metadata
     id="metadata24">
    <rdf:RDF>
      <cc:Work
         rdf:about="">
        <dc:format>image/svg+xml</dc:format>
        <dc:type
           rdf:resource="http://purl.org/dc/dcmitype/StillImage" />
        <dc:title></dc:title>
      </cc:Work>
    </rdf:RDF>
  </metadata>
  <g
     inkscape:label="Réteg 1"
     inkscape:groupmode="layer"
     id="layer1"
     transform="translate(-81.491666,-114.11114)">
    <path
       class="cls-2"
       d="m 83.396666,114.11114 h 34.290004 c 1.05198,0 1.905,0.85302 1.905,1.905 v 24.765 c 0,1.05198 -0.85302,1.905 -1.905,1.905 h -12.78864 c -0.35692,0 -0.70697,0.10028 -1.00965,0.28945 l -6.693429,4.18333 c -0.302683,0.18918 -0.652727,0.28945 -1.00965,0.28945 H 83.396666 c -1.05198,2.7e-4 -1.905,-0.85275 -1.905,-1.90473 v -29.5275 c 0,-1.05198 0.85302,-1.905 1.905,-1.905 z"
       id="path12"
       style="fill:#e9c2db;stroke-width:0.264583" />
    <path
       class="cls-2"
       d="m 86.317401,146.03629 c 0.245269,-0.0979 0.497682,-0.35269 0.675482,-0.68156 0.131498,-0.24368 0.207962,-0.50165 0.215635,-0.72602 0.0093,-0.27279 -0.08281,-0.47519 -0.259292,-0.57044 -0.08731,-0.0471 -0.233362,-0.0865 -0.432593,-0.007 -0.245269,0.0979 -0.497682,0.35269 -0.675477,0.68157 -0.1315,0.24368 -0.20797,0.50165 -0.21564,0.72628 -0.009,0.27252 0.0828,0.47519 0.25929,0.57044 0.08731,0.0471 0.233364,0.0865 0.432595,0.007 v 0 z"
       id="path102"
       style="fill:#e9c2db;stroke-width:0.264583" />
    <path
       class="cls-4"
       d="m 86.736766,144.00562 c 0.09022,0 0.161396,0.0249 0.21246,0.0524 0.176213,0.0953 0.268288,0.29766 0.259292,0.57045 -0.0074,0.22463 -0.08414,0.48233 -0.215635,0.72601 -0.177536,0.32888 -0.429948,0.58367 -0.675482,0.68157 v 0 c -0.08255,0.0331 -0.156104,0.0455 -0.220133,0.0455 -0.09022,0 -0.161392,-0.0249 -0.212462,-0.0524 -0.17621,-0.0953 -0.26829,-0.29766 -0.25929,-0.57044 0.008,-0.22463 0.0841,-0.4826 0.21564,-0.72628 0.177531,-0.32888 0.430208,-0.58367 0.675477,-0.68157 0.08281,-0.0331 0.156368,-0.0455 0.220133,-0.0455 m 0,-0.32305 c -0.111654,0 -0.225954,0.023 -0.33999,0.0685 -0.318029,0.127 -0.62415,0.42889 -0.84005,0.82841 -0.15478,0.28655 -0.24501,0.59532 -0.25427,0.86889 -0.0132,0.39582 0.14288,0.71147 0.42889,0.86572 0.1106,0.0598 0.237335,0.0913 0.365922,0.0913 0.111654,0 0.225954,-0.023 0.33999,-0.0685 0.318029,-0.127 0.624152,-0.42889 0.840052,-0.82841 0.154781,-0.28681 0.245004,-0.59532 0.254264,-0.86863 0.01349,-0.39582 -0.142875,-0.71147 -0.428889,-0.86598 -0.110596,-0.0598 -0.237332,-0.0913 -0.365919,-0.0913 z"
       id="path104"
       style="fill:#422141;stroke-width:0.264583" />
    <ellipse
       class="cls-3"
       cx="-86.563431"
       cy="144.95607"
       rx="0.92657083"
       ry="0.46090415"
       transform="rotate(-61.631001)"
       id="ellipse108"
       style="fill:#e0407d;stroke-width:0.264583" />
    <path
       class="cls-2"
       d="m 90.155183,145.87093 c 0.204522,-0.0815 0.414866,-0.29395 0.562768,-0.56806 0.109538,-0.20294 0.173302,-0.41804 0.179652,-0.6051 0.0077,-0.22728 -0.06906,-0.39608 -0.2159,-0.47546 -0.07276,-0.0392 -0.194468,-0.0722 -0.360627,-0.006 -0.204523,0.0815 -0.414866,0.29395 -0.562768,0.56806 -0.109538,0.20294 -0.173303,0.41804 -0.179653,0.6051 -0.0077,0.22728 0.06906,0.39608 0.2159,0.47519 0.07276,0.0392 0.194469,0.0722 0.360628,0.006 v 0 z"
       id="path112"
       style="fill:#e9c2db;stroke-width:0.264583" />
    <path
       class="cls-4"
       d="m 90.504433,144.17865 c 0.07514,0 0.134408,0.0209 0.177006,0.0437 0.146844,0.0794 0.223573,0.24818 0.2159,0.47546 -0.0063,0.18706 -0.07012,0.4019 -0.179652,0.6051 -0.148167,0.27411 -0.358511,0.4863 -0.562769,0.56806 v 0 c -0.06879,0.0275 -0.130175,0.0381 -0.183356,0.0381 -0.07514,0 -0.134409,-0.0209 -0.177007,-0.0437 -0.146843,-0.0794 -0.223572,-0.24818 -0.2159,-0.47519 0.0063,-0.18732 0.07012,-0.40217 0.179653,-0.6051 0.148166,-0.27411 0.35851,-0.48631 0.562768,-0.56806 0.06906,-0.0275 0.130175,-0.0381 0.183621,-0.0381 m -2.64e-4,-0.26988 c -0.09313,0 -0.188384,0.0193 -0.283369,0.0572 -0.265113,0.10584 -0.520171,0.35746 -0.700088,0.6903 -0.128852,0.23892 -0.204258,0.4961 -0.211931,0.72417 -0.01111,0.32993 0.119063,0.59293 0.357452,0.72151 0.09234,0.0497 0.197644,0.0762 0.305065,0.0762 0.09313,0 0.188383,-0.0193 0.283368,-0.0572 0.265113,-0.10583 0.520171,-0.35745 0.700088,-0.69029 0.128852,-0.23892 0.204258,-0.4961 0.211931,-0.7239 0.01111,-0.32994 -0.119062,-0.59293 -0.357452,-0.72152 -0.09234,-0.0497 -0.197644,-0.0762 -0.305064,-0.0762 v 0 z"
       id="path114"
       style="fill:#422141;stroke-width:0.264583" />
    <ellipse
       class="cls-3"
       cx="-84.748093"
       cy="148.31801"
       rx="0.77231872"
       ry="0.384175"
       transform="rotate(-61.631001)"
       id="ellipse118"
       style="fill:#e0407d;stroke-width:0.264583" />
    <path
       class="cls-2"
       d="m 93.611699,145.7053 c 0.163513,-0.0653 0.331788,-0.23521 0.450321,-0.45429 0.08758,-0.16245 0.138642,-0.33443 0.143669,-0.48419 0.0061,-0.18177 -0.0553,-0.31697 -0.172773,-0.3802 -0.05821,-0.0315 -0.155575,-0.0577 -0.288396,-0.005 -0.163512,0.0654 -0.331787,0.23522 -0.450321,0.45429 -0.08758,0.16246 -0.138641,0.33444 -0.143669,0.48419 -0.0061,0.18177 0.0553,0.31671 0.172773,0.38021 0.05821,0.0315 0.155575,0.0577 0.288396,0.005 z"
       id="path122"
       style="fill:#e9c2db;stroke-width:0.264583" />
    <path
       class="cls-4"
       d="m 93.891364,144.35169 c 0.06006,0 0.107685,0.0167 0.141552,0.0349 0.117475,0.0635 0.178858,0.19843 0.172773,0.3802 -0.005,0.14976 -0.05609,0.32174 -0.143669,0.48393 -0.118533,0.21934 -0.286808,0.3892 -0.450321,0.45429 v 0 c -0.05503,0.022 -0.104246,0.0304 -0.146844,0.0304 -0.06006,0 -0.107685,-0.0167 -0.141552,-0.0349 -0.117475,-0.0635 -0.178858,-0.19844 -0.172773,-0.38021 0.005,-0.14975 0.05609,-0.32173 0.143669,-0.48419 0.118534,-0.21934 0.286809,-0.3892 0.450321,-0.45429 0.05503,-0.022 0.104246,-0.0304 0.146844,-0.0304 m 0,-0.21537 c -0.07435,0 -0.150813,0.0153 -0.226748,0.0458 -0.211931,0.0847 -0.41619,0.28601 -0.559858,0.55218 -0.103188,0.19103 -0.163248,0.39688 -0.169598,0.57918 -0.009,0.26379 0.09525,0.4744 0.286014,0.57732 0.07382,0.0397 0.158221,0.0608 0.243946,0.0608 0.07435,0 0.150813,-0.0153 0.226748,-0.0458 0.211931,-0.0847 0.41619,-0.28602 0.559858,-0.55219 0.103188,-0.19103 0.163248,-0.39687 0.169598,-0.57917 0.009,-0.26405 -0.09525,-0.4744 -0.28575,-0.57732 -0.07382,-0.0397 -0.158221,-0.0608 -0.243946,-0.0608 v 0 z"
       id="path124"
       style="fill:#422141;stroke-width:0.264583" />
    <ellipse
       class="cls-3"
       cx="-83.113419"
       cy="151.34488"
       rx="0.61780208"
       ry="0.30718124"
       transform="rotate(-61.631001)"
       id="ellipse128"
       style="fill:#e0407d;stroke-width:0.264583" />
  </g>
</svg>
