<?xml version="1.0" encoding="UTF-8" standalone="no"?>
<svg
   xmlns:dc="http://purl.org/dc/elements/1.1/"
   xmlns:cc="http://creativecommons.org/ns#"
   xmlns:rdf="http://www.w3.org/1999/02/22-rdf-syntax-ns#"
   xmlns:svg="http://www.w3.org/2000/svg"
   xmlns="http://www.w3.org/2000/svg"
   xmlns:sodipodi="http://sodipodi.sourceforge.net/DTD/sodipodi-0.dtd"
   xmlns:inkscape="http://www.inkscape.org/namespaces/inkscape"
   id="Layer_2"
   viewBox="0 0 144 252"
   version="1.1"
   sodipodi:docname="inside_background.svg"
   inkscape:version="1.0.2 (e86c870879, 2021-01-15, custom)">
  <metadata
     id="metadata156">
    <rdf:RDF>
      <cc:Work
         rdf:about="">
        <dc:format>image/svg+xml</dc:format>
        <dc:type
           rdf:resource="http://purl.org/dc/dcmitype/StillImage" />
        <dc:title />
      </cc:Work>
    </rdf:RDF>
  </metadata>
  <sodipodi:namedview
     pagecolor="#ffffff"
     bordercolor="#666666"
     borderopacity="1"
     objecttolerance="10"
     gridtolerance="10"
     guidetolerance="10"
     inkscape:pageopacity="0"
     inkscape:pageshadow="2"
     inkscape:window-width="1366"
     inkscape:window-height="705"
     id="namedview154"
     showgrid="false"
     inkscape:zoom="1.5096168"
     inkscape:cx="350.5635"
     inkscape:cy="196.41562"
     inkscape:window-x="-8"
     inkscape:window-y="-8"
     inkscape:window-maximized="1"
     inkscape:current-layer="g150"
     inkscape:document-rotation="0" />
  <defs
     id="defs4">
    <style
       id="style2">
      .cls-1 {
        fill: #fff;
      }

      .cls-2 {
        fill: #e9c2db;
      }

      .cls-3 {
        fill: #e0407d;
      }

      .cls-4, .cls-5 {
        fill: #422141;
      }

      .cls-5 {
        font-family: SourceCodePro-Light, 'Source Code Pro';
        font-size: 8px;
        font-weight: 300;
      }

      .cls-6 {
        fill: #662b4c;
      }

      .cls-7 {
        fill: #e0427d;
      }
    </style>
  </defs>
  <g
     id="Layer_1-2"
     data-name="Layer_1">
    <g
       id="g150">
      <rect
         class="cls-2"
         x="-144"
         width="144"
         height="126"
         rx="7.1999998"
         ry="7.1999998"
         transform="scale(-1)"
         id="rect6"
         y="-126" />
      <path
         class="cls-4"
         d="M 0.513,4.541 C 1.762,3.434 4.106,2.551 6.799,2.551 h 130.402 c 2.692,0 5.037,0.883 6.286,1.99 C 142.429,1.882 139.836,0 136.8,0 H 7.2 C 4.164,0 1.571,1.882 0.513,4.541 Z"
         id="path8" />
      <path
         class="cls-2"
         d="m 7.2,126 h 129.6 c 3.976,0 7.2,3.224 7.2,7.2 v 93.6 c 0,3.976 -3.224,7.2 -7.2,7.2 H 88.465 c -1.349,0 -2.672,0.379 -3.816,1.094 l -25.298,15.811 c -1.144,0.715 -2.467,1.094 -3.816,1.094 H 7.2 C 3.224,252 0,248.776 0,244.8 V 133.2 C 0,129.224 3.224,126 7.2,126 Z"
         id="path12" />
      <path
         class="cls-2"
         d="m 18.239,246.662 c 0.927,-0.37 1.881,-1.333 2.553,-2.576 0.497,-0.921 0.786,-1.896 0.815,-2.744 0.035,-1.031 -0.313,-1.796 -0.98,-2.156 -0.33,-0.178 -0.882,-0.327 -1.635,-0.026 -0.927,0.37 -1.881,1.333 -2.553,2.576 -0.497,0.921 -0.786,1.896 -0.815,2.745 -0.035,1.03 0.313,1.796 0.98,2.156 0.33,0.178 0.882,0.327 1.635,0.026 v 0 z"
         id="path102" />
      <path
         class="cls-4"
         d="m 19.824,238.987 c 0.341,0 0.61,0.094 0.803,0.198 0.666,0.36 1.014,1.125 0.98,2.156 -0.028,0.849 -0.318,1.823 -0.815,2.744 -0.671,1.243 -1.625,2.206 -2.553,2.576 v 0 c -0.312,0.125 -0.59,0.172 -0.832,0.172 -0.341,0 -0.61,-0.094 -0.803,-0.198 -0.666,-0.36 -1.014,-1.125 -0.98,-2.156 0.029,-0.849 0.318,-1.824 0.815,-2.745 0.671,-1.243 1.626,-2.206 2.553,-2.576 0.313,-0.125 0.591,-0.172 0.832,-0.172 m 0,-1.221 c -0.422,0 -0.854,0.087 -1.285,0.259 -1.202,0.48 -2.359,1.621 -3.175,3.131 -0.585,1.083 -0.926,2.25 -0.961,3.284 -0.05,1.496 0.54,2.689 1.621,3.272 0.418,0.226 0.897,0.345 1.383,0.345 0.422,0 0.854,-0.087 1.285,-0.259 1.202,-0.48 2.359,-1.621 3.175,-3.131 0.585,-1.084 0.926,-2.25 0.961,-3.283 0.051,-1.496 -0.54,-2.689 -1.621,-3.273 -0.418,-0.226 -0.897,-0.345 -1.383,-0.345 z"
         id="path104" />
      <ellipse
         class="cls-3"
         cx="-204.89148"
         cy="131.79831"
         rx="3.5020001"
         ry="1.742"
         transform="rotate(-61.631)"
         id="ellipse108" />
      <path
         class="cls-2"
         d="m 32.744,246.037 c 0.773,-0.308 1.568,-1.111 2.127,-2.147 0.414,-0.767 0.655,-1.58 0.679,-2.287 0.029,-0.859 -0.261,-1.497 -0.816,-1.797 -0.275,-0.148 -0.735,-0.273 -1.363,-0.022 -0.773,0.308 -1.568,1.111 -2.127,2.147 -0.414,0.767 -0.655,1.58 -0.679,2.287 -0.029,0.859 0.261,1.497 0.816,1.796 0.275,0.148 0.735,0.273 1.363,0.022 v 0 z"
         id="path112" />
      <path
         class="cls-4"
         d="m 34.064,239.641 c 0.284,0 0.508,0.079 0.669,0.165 0.555,0.3 0.845,0.938 0.816,1.797 -0.024,0.707 -0.265,1.519 -0.679,2.287 -0.56,1.036 -1.355,1.838 -2.127,2.147 v 0 c -0.26,0.104 -0.492,0.144 -0.693,0.144 -0.284,0 -0.508,-0.079 -0.669,-0.165 -0.555,-0.3 -0.845,-0.938 -0.816,-1.796 0.024,-0.708 0.265,-1.52 0.679,-2.287 0.56,-1.036 1.355,-1.838 2.127,-2.147 0.261,-0.104 0.492,-0.144 0.694,-0.144 m -10e-4,-1.02 c -0.352,0 -0.712,0.073 -1.071,0.216 -1.002,0.4 -1.966,1.351 -2.646,2.609 -0.487,0.903 -0.772,1.875 -0.801,2.737 -0.042,1.247 0.45,2.241 1.351,2.727 0.349,0.188 0.747,0.288 1.153,0.288 0.352,0 0.712,-0.073 1.071,-0.216 1.002,-0.4 1.966,-1.351 2.646,-2.609 0.487,-0.903 0.772,-1.875 0.801,-2.736 0.042,-1.247 -0.45,-2.241 -1.351,-2.727 -0.349,-0.188 -0.747,-0.288 -1.153,-0.288 v 0 z"
         id="path114" />
      <ellipse
         class="cls-3"
         cx="-198.0303"
         cy="144.50482"
         rx="2.9189999"
         ry="1.452"
         transform="rotate(-61.631)"
         id="ellipse118" />
      <path
         class="cls-2"
         d="m 45.808,245.411 c 0.618,-0.247 1.254,-0.889 1.702,-1.717 0.331,-0.614 0.524,-1.264 0.543,-1.83 0.023,-0.687 -0.209,-1.198 -0.653,-1.437 -0.22,-0.119 -0.588,-0.218 -1.09,-0.018 -0.618,0.247 -1.254,0.889 -1.702,1.717 -0.331,0.614 -0.524,1.264 -0.543,1.83 -0.023,0.687 0.209,1.197 0.653,1.437 0.22,0.119 0.588,0.218 1.09,0.018 z"
         id="path122" />
      <path
         class="cls-4"
         d="m 46.865,240.295 c 0.227,0 0.407,0.063 0.535,0.132 0.444,0.24 0.676,0.75 0.653,1.437 -0.019,0.566 -0.212,1.216 -0.543,1.829 -0.448,0.829 -1.084,1.471 -1.702,1.717 v 0 c -0.208,0.083 -0.394,0.115 -0.555,0.115 -0.227,0 -0.407,-0.063 -0.535,-0.132 -0.444,-0.24 -0.676,-0.75 -0.653,-1.437 0.019,-0.566 0.212,-1.216 0.543,-1.83 0.448,-0.829 1.084,-1.471 1.702,-1.717 0.208,-0.083 0.394,-0.115 0.555,-0.115 m 0,-0.814 c -0.281,0 -0.57,0.058 -0.857,0.173 -0.801,0.32 -1.573,1.081 -2.116,2.087 -0.39,0.722 -0.617,1.5 -0.641,2.189 -0.034,0.997 0.36,1.793 1.081,2.182 0.279,0.15 0.598,0.23 0.922,0.23 0.281,0 0.57,-0.058 0.857,-0.173 0.801,-0.32 1.573,-1.081 2.116,-2.087 0.39,-0.722 0.617,-1.5 0.641,-2.189 0.034,-0.998 -0.36,-1.793 -1.08,-2.182 -0.279,-0.15 -0.598,-0.23 -0.922,-0.23 v 0 z"
         id="path124" />
      <ellipse
         class="cls-3"
         cx="-191.85201"
         cy="155.94499"
         rx="2.335"
         ry="1.161"
         transform="rotate(-61.631)"
         id="ellipse128" />
    </g>
  </g>
</svg>
