<?xml version="1.0" encoding="UTF-8"?>
<svg id="Layer_2" xmlns="http://www.w3.org/2000/svg" viewBox="0 0 144 252">
  <defs>
    <style>
      .cls-1 {
        fill: #fff;
      }

      .cls-2 {
        fill: #e9c2db;
      }

      .cls-3 {
        fill: #e0407d;
      }

      .cls-4, .cls-5 {
        fill: #422141;
      }

      .cls-5 {
        font-family: SourceCodePro-Light, 'Source Code Pro';
        font-size: 8px;
        font-weight: 300;
      }

      .cls-6 {
        fill: #662b4c;
      }

      .cls-7 {
        fill: #e0427d;
      }
    </style>
  </defs>
  <g id="Layer_1-2" data-name="Layer_1">
    <g>
      <g>
        <g>
          <rect class="cls-2" x="0" width="144" height="126" rx="7.2" ry="7.2" transform="translate(144 126) rotate(180)"/>
          <path class="cls-4" d="M.513,4.541c1.249-1.107,3.593-1.99,6.286-1.99h130.402c2.692,0,5.037.883,6.286,1.99C142.429,1.882,139.836,0,136.8,0H7.2C4.164,0,1.571,1.882.513,4.541Z"/>
        </g>
        <path class="cls-2" d="M7.2,126h129.6c3.976,0,7.2,3.224,7.2,7.2v93.6c0,3.976-3.224,7.2-7.2,7.2h-48.335c-1.349,0-2.672.379-3.816,1.094l-25.298,15.811c-1.144.715-2.467,1.094-3.816,1.094H7.2C3.224,252,0,248.776,0,244.8v-111.6C0,129.224,3.224,126,7.2,126Z"/>
        <g>
          <g>
            <path class="cls-4" d="M16.09,76.98c-.58,0-1.007-.167-1.28-.5s-.41-.82-.41-1.46v-3.021h.83v2.91c0,.46.085.802.256,1.025.17.224.458.335.864.335.28,0,.535-.071.766-.215.229-.144.478-.372.745-.686v-3.37h.819v4.86h-.67l-.07-.85h-.04c-.246.286-.517.52-.81.699-.293.181-.627.271-1,.271Z"/>
            <path class="cls-4" d="M20.27,76.86l1.851-2.52-1.71-2.341h.91l.77,1.07c.087.127.179.262.275.405s.194.281.295.415h.04c.093-.134.187-.273.279-.42.094-.146.184-.287.271-.42l.729-1.051h.87l-1.729,2.41,1.859,2.45h-.899l-.851-1.12c-.1-.14-.205-.286-.314-.439-.11-.153-.219-.301-.325-.44h-.04c-.1.146-.2.292-.3.435-.101.144-.2.292-.3.445l-.801,1.12h-.88Z"/>
            <path class="cls-7" d="M27.31,76.86v-.71h4.801v.71h-4.801Z"/>
          </g>
          <g>
            <path class="cls-4" d="M16.599,89.846v-4.19h-2.26v-.67h3.08v4.86h-.82ZM16.919,83.966c-.188,0-.344-.059-.471-.175-.127-.117-.189-.271-.189-.465s.062-.349.189-.466c.127-.116.283-.175.471-.175.187,0,.343.059.47.175.126.117.189.272.189.466s-.063.348-.189.465c-.127.116-.283.175-.47.175Z"/>
            <path class="cls-4" d="M20.368,89.846v-4.86h.681l.069.83h.04c.254-.273.526-.5.82-.68.293-.18.63-.271,1.01-.271.573,0,.997.167,1.271.5.273.334.41.82.41,1.461v3.02h-.82v-2.91c0-.46-.087-.802-.26-1.024-.174-.224-.46-.335-.86-.335-.287,0-.544.073-.771.22s-.483.366-.77.66v3.39h-.82Z"/>
            <path class="cls-4" d="M28.148,89.966c-.634,0-1.144-.222-1.53-.665s-.58-1.068-.58-1.875c0-.526.105-.981.315-1.365.21-.383.483-.678.82-.885.336-.207.694-.311,1.074-.311.294,0,.557.056.79.165.233.11.454.266.66.466h.03l-.04-.9v-1.87h.82v7.12h-.681l-.069-.64h-.03c-.2.206-.438.385-.715.534-.277.15-.565.226-.865.226ZM28.318,89.275c.48,0,.937-.243,1.37-.729v-2.42c-.22-.207-.435-.354-.645-.44-.211-.086-.422-.13-.636-.13-.279,0-.535.078-.765.235-.23.156-.413.373-.55.649-.137.277-.205.602-.205.976,0,.58.126,1.035.38,1.364.253.33.604.495,1.05.495Z"/>
            <path class="cls-4" d="M33.898,89.966c-.58,0-1.007-.167-1.28-.5s-.41-.82-.41-1.46v-3.021h.83v2.91c0,.46.085.802.256,1.025.17.224.458.335.864.335.28,0,.535-.071.766-.215.229-.144.478-.372.745-.686v-3.37h.819v4.86h-.67l-.07-.85h-.04c-.246.286-.517.52-.81.699-.293.181-.627.271-1,.271Z"/>
            <path class="cls-4" d="M40.538,89.966c-.473,0-.916-.075-1.33-.226-.413-.149-.767-.328-1.06-.534l.38-.54c.28.199.59.359.93.479.341.12.733.181,1.181.181.413,0,.722-.075.925-.226.203-.149.305-.328.305-.535,0-.126-.035-.239-.104-.34-.07-.1-.214-.196-.431-.29-.216-.093-.545-.184-.984-.27-.627-.134-1.101-.312-1.42-.535-.32-.224-.48-.519-.48-.885,0-.394.17-.722.51-.985.341-.264.844-.396,1.511-.396.373,0,.733.062,1.08.186s.64.269.88.435l-.4.53c-.227-.153-.477-.276-.75-.37-.273-.093-.566-.14-.88-.14-.413,0-.703.07-.87.21s-.25.304-.25.49c0,.206.111.366.335.479s.582.224,1.075.33c.54.113.955.24,1.245.38.29.141.49.3.6.48.11.18.165.394.165.64,0,.26-.083.5-.25.72-.166.221-.41.397-.729.53-.32.134-.714.2-1.181.2Z"/>
            <path class="cls-4" d="M47.379,89.966c-.474,0-.847-.085-1.12-.255s-.469-.405-.585-.705c-.117-.3-.176-.65-.176-1.05v-2.301h-1.369v-.619l1.399-.051.11-1.56h.68v1.56h2.39v.67h-2.39v2.311c0,.434.089.764.265.99.177.227.499.34.966.34.233,0,.443-.021.63-.061s.366-.093.54-.159l.18.6c-.22.08-.452.148-.695.205s-.519.085-.824.085Z"/>
            <path class="cls-4" d="M50.898,89.846v-4.86h.68l.07,1.15h.03c.253-.394.566-.703.939-.93.374-.227.783-.341,1.23-.341.18,0,.348.016.505.046.156.029.309.081.455.154l-.19.71c-.166-.06-.31-.103-.43-.13-.12-.026-.276-.04-.47-.04-.367,0-.719.105-1.056.315-.336.21-.651.568-.944,1.075v2.85h-.82Z"/>
            <path class="cls-4" d="M58.599,89.846v-4.19h-2.26v-.67h3.08v4.86h-.82ZM58.919,83.966c-.188,0-.344-.059-.471-.175-.127-.117-.189-.271-.189-.465s.062-.349.189-.466c.127-.116.283-.175.471-.175.187,0,.343.059.47.175.126.117.189.272.189.466s-.063.348-.189.465c-.127.116-.283.175-.47.175Z"/>
            <path class="cls-4" d="M63.898,89.966c-.3,0-.575-.055-.825-.165s-.45-.269-.6-.475c-.15-.207-.226-.454-.226-.74,0-.367.119-.672.355-.915s.615-.438,1.135-.585c.521-.146,1.196-.254,2.03-.32-.007-.22-.052-.422-.135-.604-.084-.184-.219-.332-.405-.445s-.437-.17-.75-.17-.618.062-.915.185c-.297.124-.559.255-.785.396l-.32-.561c.247-.16.562-.316.945-.47.384-.153.788-.23,1.215-.23.667,0,1.162.183,1.485.546s.485.848.485,1.454v2.98h-.67l-.07-.66h-.03c-.267.207-.566.389-.899.545-.334.157-.674.235-1.021.235ZM64.118,89.306c.273,0,.549-.063.825-.19.276-.126.552-.303.825-.529v-1.28c-.693.054-1.238.135-1.635.245-.397.11-.677.247-.84.41-.164.163-.245.352-.245.564,0,.273.108.472.324.596.217.123.466.185.745.185Z"/>
            <path class="cls-4" d="M71.509,89.966c-.514,0-.909-.148-1.186-.445-.276-.296-.415-.731-.415-1.305v-4.82h-1.729v-.67h2.55v5.55c0,.354.088.61.265.771s.408.24.695.24.59-.073.91-.221l.21.61c-.227.094-.434.165-.62.215s-.413.075-.68.075Z"/>
            <path class="cls-7" d="M75.118,90.016v-.71h4.801v.71h-4.801Z"/>
          </g>
          <g>
            <path class="cls-4" d="M16.51,103.065c-.634,0-1.144-.222-1.53-.665s-.58-1.068-.58-1.875c0-.526.105-.981.315-1.365.21-.383.483-.678.82-.885.336-.207.694-.311,1.074-.311.294,0,.557.056.79.165.233.11.454.266.66.466h.03l-.04-.9v-1.87h.82v7.12h-.681l-.069-.64h-.03c-.2.206-.438.385-.715.534-.277.15-.565.226-.865.226ZM16.68,102.375c.48,0,.937-.243,1.37-.729v-2.42c-.22-.207-.435-.354-.645-.44-.211-.086-.422-.13-.636-.13-.279,0-.535.078-.765.235-.23.156-.413.373-.55.649-.137.277-.205.602-.205.976,0,.58.126,1.035.38,1.364.253.33.604.495,1.05.495Z"/>
            <path class="cls-4" d="M23.1,103.065c-.486,0-.929-.101-1.325-.3-.396-.2-.711-.492-.944-.875-.233-.384-.351-.846-.351-1.386,0-.526.117-.979.351-1.359s.538-.672.915-.875c.376-.203.781-.306,1.215-.306.7,0,1.245.209,1.635.625.39.417.585.969.585,1.655,0,.094-.003.184-.01.271-.007.086-.017.163-.03.229h-3.83c.054.547.255.96.605,1.24.35.28.778.42,1.285.42.293,0,.558-.042.795-.125.236-.083.465-.195.685-.335l.3.54c-.239.16-.515.297-.824.41-.311.113-.662.17-1.056.17ZM22.98,98.615c-.399,0-.757.129-1.069.385-.313.257-.507.625-.58,1.105h3.1c-.033-.5-.18-.873-.439-1.12-.261-.247-.597-.37-1.011-.37Z"/>
            <path class="cls-4" d="M28.9,103.065c-.473,0-.916-.075-1.33-.226-.413-.149-.767-.328-1.06-.534l.38-.54c.28.199.59.359.93.479.341.12.733.181,1.181.181.413,0,.722-.075.925-.226.203-.149.305-.328.305-.535,0-.126-.035-.239-.104-.34-.07-.1-.214-.196-.431-.29-.216-.093-.545-.184-.984-.27-.627-.134-1.101-.312-1.42-.535-.32-.224-.48-.519-.48-.885,0-.394.17-.722.51-.985.341-.264.844-.396,1.511-.396.373,0,.733.062,1.08.186s.64.269.88.435l-.4.53c-.227-.153-.477-.276-.75-.37-.273-.093-.566-.14-.88-.14-.413,0-.703.07-.87.21s-.25.304-.25.49c0,.206.111.366.335.479s.582.224,1.075.33c.54.113.955.24,1.245.38.29.141.49.3.6.48.11.18.165.394.165.64,0,.26-.083.5-.25.72-.166.221-.41.397-.729.53-.32.134-.714.2-1.181.2Z"/>
            <path class="cls-4" d="M34.961,102.945v-4.19h-2.26v-.67h3.08v4.86h-.82ZM35.281,97.065c-.188,0-.344-.059-.471-.175-.127-.117-.189-.271-.189-.465s.062-.349.189-.466c.127-.116.283-.175.471-.175.187,0,.343.059.47.175.126.117.189.272.189.466s-.063.348-.189.465c-.127.116-.283.175-.47.175Z"/>
            <path class="cls-4" d="M40.76,105.185c-.707,0-1.257-.119-1.65-.355-.393-.236-.59-.568-.59-.995,0-.413.267-.773.8-1.08v-.04c-.126-.073-.241-.173-.345-.3-.104-.126-.155-.293-.155-.5,0-.153.051-.312.15-.475s.243-.309.43-.436v-.04c-.166-.126-.308-.296-.425-.51-.116-.213-.175-.463-.175-.75,0-.354.088-.66.265-.92s.41-.461.7-.604.605-.216.945-.216c.273,0,.513.04.72.12h2.01v.67h-1.26c.113.114.21.257.29.431.08.173.12.356.12.55,0,.347-.083.645-.25.895s-.392.442-.675.575c-.283.134-.602.2-.955.2-.127,0-.262-.015-.405-.045s-.281-.075-.415-.135c-.12.073-.213.156-.28.25-.066.093-.1.196-.1.31,0,.187.088.327.265.42.177.094.426.141.745.141h1.09c.627,0,1.092.086,1.396.26.303.173.455.467.455.88,0,.3-.11.58-.33.84s-.532.469-.936.625-.881.235-1.435.235ZM40.82,104.585c.567,0,1.014-.1,1.341-.3.326-.2.489-.423.489-.67,0-.233-.092-.39-.274-.47-.184-.08-.462-.12-.835-.12h-.95c-.14,0-.271-.007-.396-.021-.123-.013-.238-.033-.345-.06-.227.127-.387.258-.479.395-.094.137-.141.275-.141.415,0,.254.136.455.405.605.271.15.665.225,1.185.225ZM40.711,100.855c.313,0,.578-.105.795-.315s.325-.488.325-.835c0-.34-.108-.615-.325-.825s-.481-.314-.795-.314c-.307,0-.57.104-.79.314s-.33.485-.33.825c0,.347.11.625.33.835s.483.315.79.315Z"/>
            <path class="cls-4" d="M44.73,102.945v-4.86h.681l.069.83h.04c.254-.273.526-.5.82-.68.293-.18.63-.271,1.01-.271.573,0,.997.167,1.271.5.273.334.41.82.41,1.461v3.02h-.82v-2.91c0-.46-.087-.802-.26-1.024-.174-.224-.46-.335-.86-.335-.287,0-.544.073-.771.22s-.483.366-.77.66v3.39h-.82Z"/>
            <path class="cls-7" d="M52.44,102.945c-.227,0-.418-.078-.575-.235-.156-.156-.234-.358-.234-.604,0-.254.078-.459.234-.615.157-.156.349-.235.575-.235s.418.079.575.235c.156.156.234.361.234.615,0,.246-.078.448-.234.604-.157.157-.349.235-.575.235Z"/>
            <path class="cls-4" d="M35.281,97.065c-.188,0-.344-.059-.471-.175-.127-.117-.189-.271-.189-.465s.062-.349.189-.466c.127-.116.283-.175.471-.175.187,0,.343.059.47.175.126.117.189.272.189.466s-.063.348-.189.465c-.127.116-.283.175-.47.175Z"/>
          </g>
        </g>
        <g>
          <path class="cls-6" d="M111.318,55.114c-.13.19-.28.39-.43.59.09.52.14,1.08.14,1.67,0,1.25-.33,2.58-1.12,3.74-1.23,1.85-3.57,3.27-7.46,3.27-6.32,0-6.64-4.36-6.64-5.23,0-.03.01-.06.01-.09-1.15-.13-2.16-.58-2.91-1.28-.87.85-2.11,1.34-3.6,1.34-1.17,0-2.21-.34-3.04-.91-.9.56-2.09.91-3.65.91-2.85,0-5-1.02-6.29-2.83-1.11.6-2.28.96-3.04.85-.88,1.23-2.34,1.98-4.14,1.98-1.57,0-2.88-.58-3.78-1.56-1.59,1.19-3.56,1.56-5.37,1.56-1.95,0-3.66-.47-5.03-1.31-1.06.74-2.65,1.29-5.04,1.29-2.53,0-4.58-.55-6.18-1.64-.99.93-2.63,1.66-5.34,1.66-2.12,0-3.96-.56-5.41-1.58-.87,1-2.16,1.58-3.77,1.58-1.62,0-2.95-.58-3.85-1.59-.87.87-2.1,1.35-3.59,1.35-1.48,0-2.72-.48-3.61-1.34-.88,1-2.21,1.58-3.83,1.58-2.96,0-5.1-2.07-5.1-4.93v-9.79c0-2.41.56-4.25,1.45-5.63-.91-.88-1.45-2.11-1.45-3.54v-9.79c0-3.86,1.41-6.27,3.36-7.61,1.4-.99,3.09-1.4,4.72-1.4,1.66,0,3.14.38,4.37,1.08,1.23-.7,2.74-1.08,4.45-1.08,3.89,0,6.57,2,7.6,5.49.95-.41,2.19-.67,3.81-.67,2.73,0,4.97.9,6.54,2.51,1.57-1.6,3.8-2.51,6.5-2.51,1.55,0,2.75.21,3.68.56.75-.39,1.61-.64,2.54-.64,1.43,0,2.71.58,3.61,1.57.95-1,2.36-1.57,3.9-1.57,2.33,0,4.12,1.3,4.79,3.48.22.69.33,1.59.33,2.64,0,.83-.07,1.78-.23,2.77h6.64c2.91,0,4.95,2.08,4.95,5.05,0,.35-.03.69-.09,1.01,1.55.19,2.82,1.04,3.58,2.28.16-1.02.57-1.9,1.19-2.59.23.24.43.5.61.79.1-.65.31-1.25.6-1.77.74-.41,1.61-.64,2.59-.64,2.97,0,5.05,2.13,5.05,5.19v.92c1.23.17,2.34.59,3.32,1.18.92-.83,2.17-1.34,3.58-1.34,1.43,0,2.71.57,3.61,1.56.95-1,2.36-1.56,3.9-1.56,2.32,0,4.11,1.29,4.78,3.47.23.7.34,1.6.34,2.64,0,2.61-.67,6.31-2.55,8.86Z"/>
          <path class="cls-1" d="M113.118,53.314c-.13.19-.28.39-.43.59.09.52.14,1.08.14,1.67,0,1.97-.84,4.15-2.92,5.54-1.34.9-3.18,1.47-5.66,1.47-6.32,0-6.64-4.36-6.64-5.23,0-.03.01-.06.01-.09-1.15-.13-2.16-.58-2.91-1.28-.87.85-2.11,1.34-3.6,1.34-1.17,0-2.21-.34-3.04-.91-.9.56-2.09.91-3.65.91-2.85,0-5-1.02-6.29-2.83-1.11.6-2.28.96-3.04.85-.88,1.23-2.34,1.98-4.14,1.98-1.57,0-2.88-.58-3.78-1.56-1.59,1.19-3.56,1.56-5.37,1.56-1.95,0-3.66-.47-5.03-1.31-1.06.74-2.65,1.29-5.04,1.29-2.53,0-4.58-.55-6.18-1.64-.99.93-2.63,1.66-5.34,1.66-2.12,0-3.96-.56-5.41-1.58-.87,1-2.16,1.58-3.77,1.58-1.62,0-2.95-.58-3.85-1.59-.87.87-2.1,1.35-3.59,1.35-1.48,0-2.72-.48-3.61-1.34-.88,1-2.21,1.58-3.83,1.58-2.96,0-5.1-2.07-5.1-4.93v-9.79c0-2.41.56-4.25,1.45-5.63-.91-.88-1.45-2.11-1.45-3.54v-9.79c0-2.52.6-4.42,1.56-5.81,1.57-2.29,4.1-3.2,6.52-3.2,1.66,0,3.14.38,4.37,1.08,1.23-.7,2.74-1.08,4.45-1.08,3.89,0,6.57,2,7.6,5.49.95-.41,2.19-.67,3.81-.67,2.73,0,4.97.9,6.54,2.51,1.57-1.6,3.8-2.51,6.5-2.51,1.55,0,2.75.21,3.68.56.75-.39,1.61-.64,2.54-.64,1.43,0,2.71.58,3.61,1.57.95-1,2.36-1.57,3.9-1.57,2.33,0,4.12,1.3,4.79,3.48.22.69.33,1.59.33,2.64,0,.83-.07,1.78-.23,2.77h6.64c2.91,0,4.95,2.08,4.95,5.05,0,.35-.03.69-.09,1.01,1.19.15,2.22.68,2.97,1.49.23.24.43.5.61.79.1-.65.31-1.25.6-1.77.85-1.51,2.42-2.44,4.39-2.44,2.97,0,5.05,2.13,5.05,5.19v.92c1.23.17,2.34.59,3.32,1.18.92-.83,2.17-1.34,3.58-1.34,1.43,0,2.71.57,3.61,1.56.95-1,2.36-1.56,3.9-1.56,2.32,0,4.11,1.29,4.78,3.47.23.7.34,1.6.34,2.64,0,2.61-.67,6.31-2.55,8.86Z"/>
          <g>
            <path class="cls-6" d="M27.948,36.944c-2.37,0-3.93.97-4.43,2.75-.5-1.76-2.09-2.75-4.39-2.75-3.13,0-4.74,1.94-4.74,5.66v9.79c0,1.05.67,1.59,1.76,1.59,1.11,0,1.66-.5,1.66-1.59v-9.98c0-1.56.66-2.34,2.01-2.34,1.38,0,2.01.9,2.01,2.82v9.03c0,1.28.55,1.82,1.76,1.82,1.18,0,1.66-.52,1.66-1.82v-9.03c0-1.94.64-2.82,2.01-2.82,1.35,0,2.02.76,2.02,2.34v9.75c0,1.28.54,1.82,1.75,1.82,1.19,0,1.66-.52,1.66-1.82v-9.56c0-3.84-1.52-5.66-4.74-5.66Z"/>
            <path class="cls-6" d="M42.318,50.954c-.54,0-.95.26-2.16.26-1.94,0-2.22-1.69-2.22-3.32,0-1.64.52-3.37,2.2-3.37,1.21,0,1.26.26,2.18.26.86,0,1.4-.37,1.4-1.3,0-1.3-1.07-1.73-3.51-1.73-3.86,0-5.69,2.46-5.69,6.14s1.83,6.09,5.69,6.09c2.44,0,3.51-.59,3.51-1.9,0-.92-.54-1.13-1.4-1.13Z"/>
            <path class="cls-6" d="M53.788,50.574c-.69,0-1.52.26-2.66.26-1.8,0-2.72-1.5-2.72-5.26s.5-5.5,2.72-5.5c1.14,0,1.97.26,2.66.26,1.25,0,1.8-.59,1.8-1.4,0-1.61-2.02-1.99-3.86-1.99-5.12,0-6.88,3.08-6.88,8.63s1.76,8.39,6.88,8.39c1.84,0,3.86-.38,3.86-1.99,0-.81-.55-1.4-1.8-1.4Z"/>
            <path class="cls-6" d="M61.278,41.754c-2.45,0-3.51.59-3.51,1.9,0,.92.54,1.13,1.4,1.13.92,0,1.3-.26,2.51-.26.99,0,1.73.43,1.94,1.88-4.48-.38-6.85.87-6.85,3.62,0,2.35,1.87,3.96,5.03,3.96,3.81,0,5.16-1.94,5.16-6.19,0-3.67-1.82-6.04-5.68-6.04ZM62.008,51.374c-1.21,0-1.83-.47-1.83-1.35,0-1.11.69-1.42,2.78-1.42.26,0,.52-.05.69-.21-.17,2.53-.45,2.98-1.64,2.98Z"/>
            <path class="cls-6" d="M75.648,41.754c-1.43,0-2.52.52-3.08,1.57,0-1.12-.48-1.57-1.62-1.57-1.13,0-1.7.5-1.7,1.64v8.98c0,1.09.57,1.61,1.7,1.61,1.14,0,1.71-.52,1.71-1.61v-5.05c0-1.97.64-2.46,2.89-2.46,1.52,0,2.13-.43,2.13-1.33,0-1.21-.66-1.78-2.03-1.78Z"/>
            <path class="cls-6" d="M85.608,50.954c-.53,0-.71.16-1.38.16-.52,0-.71-.35-.71-1.3v-5h1.97c1.04,0,1.61-.52,1.61-1.45,0-.92-.57-1.42-1.61-1.42h-2.25c.16-.33.28-.93.28-1.45v-1.16c0-1.06-.64-1.73-1.66-1.73-1.04,0-1.75.74-1.75,1.78v2.56h-.62c-1.04,0-1.61.5-1.61,1.42,0,.93.57,1.45,1.61,1.45h.62v4.93c0,2.89,1.37,4.24,4.31,4.24,1.8,0,2.59-.59,2.59-1.9,0-.92-.55-1.13-1.4-1.13Z"/>
            <path class="cls-6" d="M94.778,41.754c-1.18,0-2.06.26-2.6.92.45-.87.61-1.66.61-2.55v-2.54c0-1.23-.57-1.85-1.7-1.85-1.14,0-1.73.62-1.73,1.85v14.81c0,1.05.66,1.59,1.75,1.59,1.11,0,1.66-.5,1.66-1.59v-5.54c0-1.45.71-2.26,1.87-2.26,1.21,0,1.92.79,1.92,2.26v5.54c0,1.05.66,1.59,1.75,1.59,1.12,0,1.66-.5,1.66-1.59v-5.69c0-3.01-2.08-4.95-5.19-4.95Z"/>
            <path class="cls-6" d="M112.138,42.794c-.21-.68-.67-1.11-1.59-1.11-1.02,0-1.92.52-1.78,1.54.03.17.15.78.17,1.68.05,1.45-.26,3.08-1.45,5.53l-2.96-7.68c-.24-.64-.71-1.07-1.49-1.07-.86,0-1.83.47-1.83,1.54,0,.24.05.52.14.76l2.97,7.18c1.28,3.11,1.56,3.93,1.56,4.48,0,.59-.35.78-1.25.78-.83,0-1.4-.21-2.28-.21-.85,0-1.4.21-1.4,1.14,0,1.28,1.07,1.89,3.3,1.89,3.67,0,5.24-1.51,5.24-3.67,0-1-.19-2.02-.74-2.59.76-.26,1.49-1.39,1.68-1.65,1.21-1.64,1.9-4.41,1.9-6.88,0-.4-.03-1.13-.19-1.66Z"/>
          </g>
          <g>
            <path class="cls-6" d="M16.145,35.022c-1.09,0-1.754-.544-1.754-1.588v-9.789c0-3.721,1.612-5.664,4.74-5.664,2.299,0,3.887.996,4.385,2.75.498-1.777,2.063-2.75,4.433-2.75,3.223,0,4.74,1.826,4.74,5.664v9.553c0,1.303-.475,1.824-1.66,1.824-1.208,0-1.754-.544-1.754-1.824v-9.742c0-1.588-.662-2.347-2.013-2.347-1.376,0-2.015.878-2.015,2.822v9.03c0,1.303-.475,1.824-1.66,1.824-1.208,0-1.754-.544-1.754-1.824v-9.03c0-1.92-.639-2.822-2.015-2.822-1.351,0-2.015.782-2.015,2.347v9.978c0,1.09-.544,1.588-1.658,1.588Z"/>
            <path class="cls-6" d="M39.358,22.794c-2.44,0-3.5.59-3.5,1.89,0,.93.54,1.14,1.39,1.14.93,0,1.31-.26,2.52-.26.99,0,1.73.43,1.94,1.87-4.48-.38-6.85.88-6.85,3.63,0,2.35,1.87,3.96,5.03,3.96,3.81,0,5.16-1.95,5.16-6.19,0-3.67-1.82-6.04-5.69-6.04ZM40.098,32.414c-1.21,0-1.83-.47-1.83-1.35,0-1.11.69-1.42,2.78-1.42.26,0,.52-.05.68-.22-.16,2.54-.45,2.99-1.63,2.99Z"/>
            <path class="cls-6" d="M54.508,31.984c-.54,0-.94.26-2.15.26-1.95,0-2.23-1.68-2.23-3.31,0-1.64.52-3.37,2.2-3.37,1.21,0,1.26.26,2.18.26.86,0,1.4-.38,1.4-1.3,0-1.31-1.06-1.73-3.5-1.73-3.87,0-5.69,2.46-5.69,6.14s1.82,6.09,5.69,6.09c2.44,0,3.5-.59,3.5-1.9,0-.92-.54-1.14-1.4-1.14Z"/>
            <path class="cls-6" d="M67.718,23.834c-.21-.69-.66-1.11-1.59-1.11-1.02,0-1.92.52-1.77,1.54.02.16.14.78.16,1.68.05,1.45-.26,3.08-1.44,5.52l-2.97-7.68c-.23-.64-.71-1.06-1.49-1.06-.85,0-1.82.47-1.82,1.54,0,.23.04.52.14.76l2.96,7.18c1.28,3.1,1.56,3.93,1.56,4.48,0,.59-.35.78-1.25.78-.83,0-1.4-.21-2.28-.21-.85,0-1.4.21-1.4,1.13,0,1.28,1.07,1.9,3.3,1.9,3.67,0,5.24-1.52,5.24-3.67,0-1-.19-2.02-.74-2.59.76-.26,1.5-1.4,1.69-1.66,1.2-1.63,1.89-4.41,1.89-6.87,0-.4-.02-1.14-.19-1.66Z"/>
          </g>
          <path class="cls-7" d="M77.658,31.604h-8.61c-.99,0-1.61.47-1.61,1.71,0,1.23.62,1.7,1.61,1.7h8.61c.99,0,1.61-.47,1.61-1.7,0-1.24-.62-1.71-1.61-1.71Z"/>
        </g>
        <g>
          <g>
            <g>
              <path class="cls-2" d="M18.239,246.662c.927-.37,1.881-1.333,2.553-2.576.497-.921.786-1.896.815-2.744.035-1.031-.313-1.796-.98-2.156-.33-.178-.882-.327-1.635-.026-.927.37-1.881,1.333-2.553,2.576-.497.921-.786,1.896-.815,2.745-.035,1.03.313,1.796.98,2.156.33.178.882.327,1.635.026h0Z"/>
              <path class="cls-4" d="M19.824,238.987c.341,0,.61.094.803.198.666.36,1.014,1.125.98,2.156-.028.849-.318,1.823-.815,2.744-.671,1.243-1.625,2.206-2.553,2.576h0c-.312.125-.59.172-.832.172-.341,0-.61-.094-.803-.198-.666-.36-1.014-1.125-.98-2.156.029-.849.318-1.824.815-2.745.671-1.243,1.626-2.206,2.553-2.576.313-.125.591-.172.832-.172M19.824,237.765c-.422,0-.854.087-1.285.259-1.202.48-2.359,1.621-3.175,3.131-.585,1.083-.926,2.25-.961,3.284-.05,1.496.54,2.689,1.621,3.272.418.226.897.345,1.383.345.422,0,.854-.087,1.285-.259,1.202-.48,2.359-1.621,3.175-3.131.585-1.084.926-2.25.961-3.283.051-1.496-.54-2.689-1.621-3.273-.418-.226-.897-.345-1.383-.345h0Z"/>
            </g>
            <ellipse class="cls-3" cx="18.616" cy="242.91" rx="3.502" ry="1.742" transform="translate(-203.967 143.871) rotate(-61.631)"/>
          </g>
          <g>
            <g>
              <path class="cls-2" d="M32.744,246.037c.773-.308,1.568-1.111,2.127-2.147.414-.767.655-1.58.679-2.287.029-.859-.261-1.497-.816-1.797-.275-.148-.735-.273-1.363-.022-.773.308-1.568,1.111-2.127,2.147-.414.767-.655,1.58-.679,2.287-.029.859.261,1.497.816,1.796.275.148.735.273,1.363.022h0Z"/>
              <path class="cls-4" d="M34.064,239.641c.284,0,.508.079.669.165.555.3.845.938.816,1.797-.024.707-.265,1.519-.679,2.287-.56,1.036-1.355,1.838-2.127,2.147h0c-.26.104-.492.144-.693.144-.284,0-.508-.079-.669-.165-.555-.3-.845-.938-.816-1.796.024-.708.265-1.52.679-2.287.56-1.036,1.355-1.838,2.127-2.147.261-.104.492-.144.694-.144M34.064,238.622c-.352,0-.712.073-1.071.216-1.002.4-1.966,1.351-2.646,2.609-.487.903-.772,1.875-.801,2.737-.042,1.247.45,2.241,1.351,2.727.349.188.747.288,1.153.288.352,0,.712-.073,1.071-.216,1.002-.4,1.966-1.351,2.646-2.609.487-.903.772-1.875.801-2.736.042-1.247-.45-2.241-1.351-2.727-.349-.188-.747-.288-1.153-.288h0Z"/>
            </g>
            <ellipse class="cls-3" cx="33.057" cy="242.91" rx="2.919" ry="1.452" transform="translate(-196.388 156.578) rotate(-61.631)"/>
          </g>
          <g>
            <g>
              <path class="cls-2" d="M45.808,245.411c.618-.247,1.254-.889,1.702-1.717.331-.614.524-1.264.543-1.83.023-.687-.209-1.198-.653-1.437-.22-.119-.588-.218-1.09-.018-.618.247-1.254.889-1.702,1.717-.331.614-.524,1.264-.543,1.83-.023.687.209,1.197.653,1.437.22.119.588.218,1.09.018h0Z"/>
              <path class="cls-4" d="M46.865,240.295c.227,0,.407.063.535.132.444.24.676.75.653,1.437-.019.566-.212,1.216-.543,1.829-.448.829-1.084,1.471-1.702,1.717h0c-.208.083-.394.115-.555.115-.227,0-.407-.063-.535-.132-.444-.24-.676-.75-.653-1.437.019-.566.212-1.216.543-1.83.448-.829,1.084-1.471,1.702-1.717.208-.083.394-.115.555-.115M46.865,239.48c-.281,0-.57.058-.857.173-.801.32-1.573,1.081-2.116,2.087-.39.722-.617,1.5-.641,2.189-.034.997.36,1.793,1.081,2.182.279.15.598.23.922.23.281,0,.57-.058.857-.173.801-.32,1.573-1.081,2.116-2.087.39-.722.617-1.5.641-2.189.034-.998-.36-1.793-1.08-2.182-.279-.15-.598-.23-.922-.23h0Z"/>
            </g>
            <ellipse class="cls-3" cx="46.059" cy="242.91" rx="2.335" ry="1.161" transform="translate(-189.564 168.018) rotate(-61.631)"/>
          </g>
        </g>
      </g>
      <text class="cls-5" transform="translate(14.4 198.004)"><tspan x="0" y="0">macymccarthy.design</tspan><tspan x="0" y="9.601">@gmail.com</tspan></text>
      <text class="cls-5" transform="translate(14.4 162)"><tspan x="0" y="0">macymccarthy.com</tspan></text>
      <text class="cls-5" transform="translate(14.401 180)"><tspan x="0" y="0">+1(404)585-0946</tspan></text>
    </g>
  </g>
</svg>